<svg xmlns="http://www.w3.org/2000/svg" width="120" height="120" viewBox="-30 -30 120 120"><circle opacity=".4" cx="30" cy="30" r="60"/><g fill="#FFF"><path d="M32.5 30h25c1.375 0 2.5-1.125 2.5-2.5S58.875 25 57.5 25H38.535L58.023 5.511a2.507 2.507 0 000-3.536 2.507 2.507 0 00-3.535 0L35 21.464V2.5C35 1.125 33.875 0 32.5 0S30 1.125 30 2.5v25c0 1.375 1.125 2.5 2.5 2.5zM2.5 35h18.966L1.56 54.904a2.51 2.51 0 000 3.537 2.507 2.507 0 003.535 0L25 38.535V57.5c0 1.375 1.125 2.5 2.5 2.5s2.5-1.125 2.5-2.5v-20-5c0-1.375-1.125-2.5-2.5-2.5h-25C1.125 30 0 31.125 0 32.5S1.125 35 2.5 35z"/></g></svg>