<svg xmlns="http://www.w3.org/2000/svg" width="120" height="120" viewBox="-30 -30 120 120"><circle opacity=".6" cx="30" cy="30" r="60"/><g fill="#FFF"><path d="M57.5 0h-25C31.125 0 30 1.125 30 2.5S31.125 5 32.5 5h18.965L31.977 24.489a2.507 2.507 0 000 3.536 2.507 2.507 0 003.535 0L55 8.536V27.5c0 1.375 1.125 2.5 2.5 2.5s2.5-1.125 2.5-2.5v-20-5C60 1.125 58.875 0 57.5 0zM27.5 55H8.534l19.905-19.906a2.505 2.505 0 000-3.535 2.507 2.507 0 00-3.535 0L5 51.465V32.5C5 31.125 3.875 30 2.5 30S0 31.125 0 32.5v25C0 58.875 1.125 60 2.5 60h25c1.375 0 2.5-1.125 2.5-2.5S28.875 55 27.5 55z"/></g></svg>