<svg xmlns="http://www.w3.org/2000/svg" viewBox="0 0 58.2 85.04">
  
  
  <path fill="white" d="M35,0c-9.63,11.38-23,26.91-33.73,39.24-2.52,3-1.08,5.88,3,5.88h54c-4.91-3.45-8.61-5.95-13.28-9.24C28,38.21,19.82,39.21,5.05,41.09,13.25,34,26.94,22.4,34.81,15.57,34.81,10.41,35,5.16,35,0Z"/>
  <path fill="white" d="M9.36,85c5.18,0,7.91-2.5,7.91-7.24V67.71h-4V78c0,2.55-1.3,3.78-4,3.78-1.71,0-3.54-1-3.54-4V67.71h-4V78a7,7,0,0,0,1.5,4.67C5.06,84.74,7.86,85,9.36,85Z"/>
  <polygon fill="white" points="34.12 74.29 25.57 74.29 25.57 71 35.34 71 35.34 67.71 21.65 67.71 21.65 84.52 25.57 84.52 25.57 77.59 34.12 77.59 34.12 74.29"/>
  <path fill="white" d="M47.6,78.35h4.52v1.52h0c0,.08-1.21,1.86-4.77,1.86-2.11,0-5.64-.74-5.64-5.72,0-4.64,3-5.62,5.56-5.62a4.5,4.5,0,0,1,4,2.35h4.06c-.59-2.32-2.8-5.56-8.29-5.56-5.68,0-9.21,3.36-9.21,8.77,0,8.19,6.64,9.08,9.49,9.08,6.38,0,8.15-3.81,8.26-4.06V75.22h-8Z"/>
  <g fill="white">
    <path fill="white" d="M10.32,52.84A2.62,2.62,0,0,0,7.46,50.6c-1.3,0-3.2.87-3.2,4.52,0,2.32.92,4.41,3.2,4.41a2.75,2.75,0,0,0,2.86-2.43H13a5.37,5.37,0,0,1-5.61,4.77C4,61.87,1.5,59.55,1.5,55.09s2.61-6.83,5.94-6.83c3.87,0,5.44,2.67,5.58,4.58Z"/>
    <path fill="white" d="M22.86,58.72a4.13,4.13,0,0,1-4.21,3.06c-2.7,0-4.77-1.29-4.77-5.24,0-1.15.4-4.84,4.59-4.84,1.89,0,4.5.9,4.5,5.28v.45H16.4c.07.72.22,2.34,2.25,2.34a1.62,1.62,0,0,0,1.62-1.05Zm-2.48-2.93a2,2,0,0,0-1.95-2c-1.18,0-1.81.76-2,2Z"/>
    <path fill="white" d="M33.23,52V61c0,1.65-.13,4.41-4.85,4.41-2,0-4.06-.85-4.17-2.88h2.73c.11.48.31,1,1.77,1s2-.65,2-2.2V60.18l0,0a2.59,2.59,0,0,1-2.56,1.44c-2.3,0-4.12-1.6-4.12-4.95s1.87-4.93,4-4.93a2.9,2.9,0,0,1,2.81,1.68h0V52Zm-4.65,7.51c1.71,0,2.14-1.46,2.14-2.77,0-1.55-.75-2.81-2.16-2.81-.93,0-2,.68-2,2.92C26.58,58,27.09,59.46,28.58,59.46Z"/>
    <path fill="white" d="M34.5,52h2.41v1.66h0c.52-1,1.09-1.91,2.62-1.91a3.89,3.89,0,0,1,.49,0v2.55a5.7,5.7,0,0,0-.72,0A2,2,0,0,0,37,56.54v5H34.5Z"/>
    <path fill="white" d="M49,59.66c0,1.13.25,1.38.56,1.49v.38H46.84a4.19,4.19,0,0,1-.23-1.13,3.92,3.92,0,0,1-3.1,1.38A2.68,2.68,0,0,1,40.6,59a2.93,2.93,0,0,1,2.79-3.06l2.26-.34c.4-.05.89-.22.89-.76,0-1.06-1-1.11-1.66-1.11a1.35,1.35,0,0,0-1.55,1.33H40.9c.29-2.93,2.32-3.35,4.29-3.35,1.35,0,3.81.42,3.81,2.77Zm-2.46-2.79a3.69,3.69,0,0,1-1.71.52c-.94.16-1.71.4-1.71,1.44A1.1,1.1,0,0,0,44.29,60a2.09,2.09,0,0,0,2.25-1.89Z"/>
    <path fill="white" d="M53.85,61.53H51.33V53.75H49.94V52h1.39v-.77c0-2,1.08-2.74,2.8-2.74.74,0,1.08,0,1.3,0v2h-.7c-.87,0-.88.27-.88,1.07V52h1.63v1.8H53.85Z"/>
  </g>
</svg>
