<?xml version="1.0" encoding="utf-8"?>
<!-- Generator: Adobe Illustrator 22.0.1, SVG Export Plug-In . SVG Version: 6.00 Build 0)  -->
<svg version="1.1" id="Camada_1" xmlns="http://www.w3.org/2000/svg" xmlns:xlink="http://www.w3.org/1999/xlink" x="0px" y="0px"
	 viewBox="0 0 272.2 39.4" style="enable-background:new 0 0 272.2 39.4;" xml:space="preserve">
<style type="text/css">
	.st0{fill:#FFFFFF;}
</style>
<g>
	<g>
		<path class="st0" d="M51.8,23.4l1.7,1v2l-1.7,1l-1.8-1v-2L51.8,23.4z M49.9,31.8l2-1.3v-2.4L49.8,27l-2.1,1.2l0.1,2.4
			C47.8,30.6,49.9,31.8,49.9,31.8z M46.1,27.6l1.3,0.7v1.6l-1.3,0.8l-1.4-0.8v-1.6L46.1,27.6z M42.8,23.4l2,1.2l0.1,2.4l-2.1,1.2
			L40.7,27v-2.4L42.8,23.4z M44.9,20.2l1.7,1v1.9l-1.7,1l-1.7-1v-1.9L44.9,20.2z M50,24.1l2.7-1.6v-3.2l-2.8-1.5l-2.7,1.6l0.1,3.1
			L50,24.1z"/>
	</g>
	<g>
		<path class="st0" d="M12,29c-0.4,0.2-1.2,0.4-2.3,0.4c-2.8,0-4.6-1.8-4.6-4.5c0-3,2.1-4.8,4.8-4.8c1.1,0,1.8,0.2,2.2,0.4l-0.3,1.3
			c-0.4-0.2-1-0.3-1.8-0.3c-1.8,0-3.1,1.2-3.1,3.3c0,2,1.1,3.3,3.1,3.3c0.6,0,1.3-0.1,1.8-0.3L12,29z M16.3,20.3v9h-1.6v-9H16.3z
			 M21.3,26.7l-0.8,2.6h-1.7l2.9-9h2.1l2.9,9H25l-0.8-2.6C24.2,26.7,21.3,26.7,21.3,26.7z M23.9,25.5l-0.7-2.2
			c-0.2-0.5-0.3-1.2-0.5-1.7c-0.1,0.5-0.3,1.2-0.4,1.7l-0.7,2.2C21.6,25.5,23.9,25.5,23.9,25.5z M29.3,20.4c0.6-0.1,1.5-0.2,2.5-0.2
			c1.3,0,2.2,0.2,2.8,0.7c0.5,0.4,0.8,1,0.8,1.8c0,1.2-0.8,2-1.6,2.2c0.7,0.2,1,0.9,1.2,1.7c0.3,1.1,0.5,2.2,0.7,2.5H34
			c-0.1-0.3-0.4-1-0.6-2.1c-0.3-1.2-0.7-1.6-1.6-1.6H31v3.7h-1.6v-8.7L29.3,20.4z M30.9,24.4h1c1.1,0,1.8-0.6,1.8-1.5
			c0-1-0.7-1.4-1.7-1.4c-0.5,0-0.9,0-1,0.1v2.8H30.9z"/>
	</g>
	<g>
		<g>
			<path class="st0" d="M57.2,20.2v5.2c0,1.6,0.6,2.4,1.6,2.4c1.1,0,1.7-0.8,1.7-2.4v-5.2h2v5.1c0,2.8-1.4,4.1-3.8,4.1
				c-2.3,0-3.6-1.3-3.6-4.1v-5h2.1V20.2z M64.4,20.2h5.5v1.7h-3.5V24h3.2v1.7h-3.2v3.6h-2V20.2z M79,28.8c-0.6,0.2-1.8,0.5-3,0.5
				c-1.7,0-2.8-0.4-3.7-1.2c-0.8-0.8-1.3-2-1.3-3.3c0-3,2.2-4.7,5.2-4.7c1.2,0,2.1,0.2,2.5,0.4l-0.4,1.7c-0.5-0.2-1.1-0.4-2.1-0.4
				c-1.7,0-3,1-3,2.9s1.2,3,2.9,3c0.5,0,0.8-0.1,1-0.1v-1.9h-1.4v-1.6H79V28.8z"/>
		</g>
		<g>
			<path class="st0" d="M101.4,31.1h1.2v0.3h-0.9v0.7h0.8v0.3h-0.8v1h-0.3C101.4,33.4,101.4,31.1,101.4,31.1z M104,32.7h-0.8
				l-0.2,0.6h-0.3l0.8-2.3h0.1l0.8,2.3h-0.3L104,32.7z M103.4,32.5h0.6l-0.2-0.6l-0.1-0.3l-0.1,0.4C103.6,32,103.4,32.5,103.4,32.5z
				 M106.1,33.2c-0.1,0.1-0.1,0.1-0.2,0.1h-0.3c-0.1,0-0.2,0-0.4-0.1c-0.1,0-0.2-0.1-0.3-0.2s-0.2-0.2-0.2-0.4
				c-0.1-0.1-0.1-0.3-0.1-0.5c0-0.2,0-0.4,0.1-0.5s0.1-0.3,0.2-0.4s0.2-0.2,0.3-0.2c0.1,0,0.2-0.1,0.3-0.1h0.3c0.1,0,0.1,0,0.2,0.1
				l-0.1,0.3c-0.1,0-0.2-0.1-0.4-0.1h-0.2c-0.1,0-0.2,0.1-0.2,0.2c-0.1,0.1-0.1,0.2-0.1,0.3c0,0.1-0.1,0.3-0.1,0.4
				c0,0.1,0,0.3,0.1,0.4c0,0.1,0.1,0.2,0.1,0.3l0.2,0.2c0.1,0,0.2,0.1,0.3,0.1h0.2c0.1,0,0.1,0,0.2-0.1L106.1,33.2z M107.7,31.1h0.3
				v1.5c0,0.1,0,0.3-0.1,0.4c0,0.1-0.1,0.2-0.1,0.3s-0.1,0.1-0.2,0.1h-0.3c-0.3,0-0.4-0.1-0.6-0.2c-0.1-0.1-0.2-0.3-0.2-0.6v-1.5
				h0.3v1.4c0,0.2,0,0.4,0.1,0.5s0.2,0.1,0.4,0.1s0.3,0,0.3-0.1c0.1-0.1,0.1-0.2,0.1-0.5L107.7,31.1L107.7,31.1z M109.8,33.3h-1.3
				V31h0.3v2h1V33.3z M110.1,31.1h0.6c0.2,0,0.3,0,0.4,0.1s0.2,0.1,0.3,0.2c0.1,0.1,0.1,0.2,0.2,0.4c0,0.1,0.1,0.3,0.1,0.5
				c0,0.1,0,0.3-0.1,0.4c0,0.1-0.1,0.3-0.2,0.4l-0.3,0.3c-0.1,0.1-0.3,0.1-0.5,0.1h-0.5H110L110.1,31.1L110.1,31.1z M110.7,31.3
				C110.6,31.3,110.6,31.3,110.7,31.3h-0.2h-0.1h-0.1V33h0.4c0.1,0,0.3,0,0.4-0.1s0.2-0.1,0.2-0.2c0.1-0.1,0.1-0.2,0.1-0.3v-0.3
				v-0.3c0-0.1-0.1-0.2-0.1-0.3c-0.1-0.1-0.1-0.2-0.2-0.2C110.9,31.4,110.8,31.3,110.7,31.3z M113,32.7h-0.8l-0.2,0.6h-0.3l0.8-2.3
				h0.1l0.8,2.3h-0.3L113,32.7z M112.4,32.5h0.6l-0.2-0.6l-0.1-0.3l-0.1,0.4C112.6,32,112.4,32.5,112.4,32.5z M113.8,31.1h0.6
				c0.2,0,0.3,0,0.4,0.1s0.2,0.1,0.3,0.2c0.1,0.1,0.1,0.2,0.2,0.4c0,0.1,0.1,0.3,0.1,0.5c0,0.1,0,0.3-0.1,0.4c0,0.1-0.1,0.3-0.2,0.4
				l-0.3,0.3c-0.1,0.1-0.3,0.1-0.5,0.1h-0.5h-0.1L113.8,31.1L113.8,31.1z M114.4,31.3h-0.2h-0.1H114V33h0.4c0.1,0,0.3,0,0.4-0.1
				s0.2-0.1,0.2-0.2c0.1-0.1,0.1-0.2,0.1-0.3v-0.3v-0.3c0-0.1-0.1-0.2-0.1-0.3c-0.1-0.1-0.1-0.2-0.2-0.2
				C114.7,31.4,114.5,31.3,114.4,31.3z M115.8,31.1h1.2v0.3h-0.9V32h0.8v0.3h-0.8V33h0.9v0.3h-1.2C115.8,33.3,115.8,31.1,115.8,31.1
				z M118.3,31.1h0.6c0.2,0,0.3,0,0.4,0.1s0.2,0.1,0.3,0.2c0.1,0.1,0.1,0.2,0.2,0.4c0,0.1,0.1,0.3,0.1,0.5c0,0.1,0,0.3-0.1,0.4
				c0,0.1-0.1,0.3-0.2,0.4l-0.3,0.3c-0.1,0.1-0.3,0.1-0.5,0.1h-0.5h-0.1L118.3,31.1L118.3,31.1z M118.9,31.3
				C118.8,31.3,118.8,31.3,118.9,31.3h-0.2h-0.1h-0.1V33h0.4c0.1,0,0.3,0,0.4-0.1s0.2-0.1,0.2-0.2c0.1-0.1,0.1-0.2,0.1-0.3v-0.3
				v-0.3c0-0.1-0.1-0.2-0.1-0.3c-0.1-0.1-0.1-0.2-0.2-0.2C119.1,31.4,119,31.3,118.9,31.3z M120.3,31.1h1.2v0.3h-0.9V32h0.8v0.3
				h-0.8V33h0.9v0.3h-1.2C120.3,33.3,120.3,31.1,120.3,31.1z M123.7,32.7h-0.8l-0.2,0.6h-0.3l0.8-2.3h0.1l0.8,2.3h-0.3L123.7,32.7z
				 M123,32.5h0.6l-0.2-0.6l-0.1-0.3l-0.1,0.4C123.2,32,123,32.5,123,32.5z M124.4,31.1h0.7c0.1,0,0.2,0.1,0.2,0.1
				c0.1,0,0.1,0.1,0.2,0.2c0,0.1,0.1,0.2,0.1,0.3v0.2c0,0.1-0.1,0.1-0.1,0.2s-0.1,0.1-0.2,0.1s-0.1,0.1-0.2,0.1l0.1,0.1l0.5,0.9
				h-0.3l-0.6-0.9h-0.3v1h-0.3v-2.3L124.4,31.1z M125,31.3C125,31.3,124.9,31.3,125,31.3h-0.2h-0.1h-0.1v0.8h0.4
				c0.1,0,0.1,0,0.1-0.1l0.1-0.1v-0.2c0-0.1,0-0.2-0.1-0.3C125.2,31.4,125.1,31.3,125,31.3z M127.5,31.4h-0.7v2h-0.3v-2h-0.7v-0.3
				h1.6L127.5,31.4L127.5,31.4z M127.8,31.1h1.2v0.3h-0.9V32h0.8v0.3h-0.8V33h0.9v0.3h-1.2C127.8,33.3,127.8,31.1,127.8,31.1z
				 M130.4,32.7c0-0.1,0-0.2-0.1-0.2c-0.1-0.1-0.1-0.1-0.2-0.1s-0.2-0.1-0.2-0.1c-0.1,0-0.2-0.1-0.2-0.1l-0.2-0.2
				c-0.1-0.1-0.1-0.2-0.1-0.3c0-0.2,0.1-0.3,0.2-0.4c0.1-0.1,0.3-0.2,0.5-0.2h0.3c0.1,0,0.2,0,0.2,0.1l-0.1,0.3c0,0-0.1,0-0.2-0.1
				H130c-0.1,0-0.2,0-0.3,0.1s-0.1,0.1-0.1,0.2s0,0.1,0.1,0.2c0.1,0.1,0.1,0.1,0.2,0.1s0.2,0.1,0.2,0.1c0.1,0,0.2,0.1,0.2,0.1
				l0.2,0.2c0.1,0.1,0.1,0.2,0.1,0.3s0,0.2-0.1,0.3c0,0.1-0.1,0.2-0.1,0.2c-0.1,0.1-0.1,0.1-0.2,0.1h-0.7c-0.1,0-0.2-0.1-0.2-0.1
				l0.1-0.3c0,0,0.1,0.1,0.2,0.1h0.5c0.1,0,0.1,0,0.1-0.1l0.1-0.1C130.4,32.8,130.4,32.8,130.4,32.7z M132.4,32.6l0.1,0.4l0.1-0.4
				l0.5-1.5h0.3l-0.8,2.3h-0.1l-0.8-2.3h0.3L132.4,32.6z M133.7,31.3h-0.2v-0.2h0.7v0.2H134v1.8h0.2v0.2h-0.7v-0.2h0.2V31.3z
				 M135.6,32.7c0-0.1,0-0.2-0.1-0.2c-0.1-0.1-0.1-0.1-0.2-0.1s-0.2-0.1-0.2-0.1c-0.1,0-0.2-0.1-0.2-0.1l-0.2-0.2
				c-0.1-0.1-0.1-0.2-0.1-0.3c0-0.2,0.1-0.3,0.2-0.4c0.1-0.1,0.3-0.2,0.5-0.2h0.3c0.1,0,0.2,0,0.2,0.1l-0.1,0.3c0,0-0.1,0-0.2-0.1
				h-0.3c-0.1,0-0.2,0-0.3,0.1s-0.1,0.1-0.1,0.2s0,0.1,0.1,0.2C135,32,135,32,135.1,32s0.2,0.1,0.2,0.1c0.1,0,0.2,0.1,0.2,0.1
				l0.2,0.2c0.1,0.1,0.1,0.2,0.1,0.3s0,0.2-0.1,0.3c0,0.1-0.1,0.2-0.1,0.2c-0.1,0.1-0.1,0.1-0.2,0.1h-0.7c-0.1,0-0.2-0.1-0.2-0.1
				l0.1-0.3c0,0,0.1,0.1,0.2,0.1h0.5c0.1,0,0.1,0,0.1-0.1l0.1-0.1C135.6,32.8,135.6,32.8,135.6,32.7z M137.5,31.1h0.3v1.5
				c0,0.1,0,0.3-0.1,0.4c0,0.1-0.1,0.2-0.1,0.3s-0.1,0.1-0.2,0.1h-0.3c-0.3,0-0.4-0.1-0.6-0.2c-0.1-0.1-0.2-0.3-0.2-0.6v-1.5h0.3
				v1.4c0,0.2,0,0.4,0.1,0.5s0.2,0.1,0.4,0.1s0.3,0,0.3-0.1c0.1-0.1,0.1-0.2,0.1-0.5V31.1z M139.3,32.7h-0.8l-0.2,0.6H138l0.8-2.3
				h0.1l0.8,2.3h-0.3L139.3,32.7z M138.6,32.5h0.6l-0.2-0.6l-0.1-0.3l-0.1,0.4L138.6,32.5z M140.2,31.3H140v-0.2h0.7v0.2h-0.2v1.8
				h0.2v0.2H140v-0.2h0.2V31.3z M142.1,32.7c0-0.1,0-0.2-0.1-0.2c-0.1-0.1-0.1-0.1-0.2-0.1s-0.2-0.1-0.2-0.1c-0.1,0-0.2-0.1-0.2-0.1
				l-0.2-0.2c-0.1-0.1-0.1-0.2-0.1-0.3c0-0.2,0.1-0.3,0.2-0.4c0.1-0.1,0.3-0.2,0.5-0.2h0.3c0.1,0,0.2,0,0.2,0.1l-0.1,0.3
				c0,0-0.1,0-0.2-0.1h-0.3c-0.1,0-0.2,0-0.3,0.1s-0.1,0.1-0.1,0.2s0,0.1,0.1,0.2c0.1,0.1,0.1,0.1,0.2,0.1s0.2,0.1,0.2,0.1
				c0.1,0,0.2,0.1,0.2,0.1l0.2,0.2c0.1,0.1,0.1,0.2,0.1,0.3s0,0.2-0.1,0.3s-0.1,0.2-0.1,0.2c-0.1,0.1-0.1,0.1-0.2,0.1h-0.7
				c-0.1,0-0.2-0.1-0.2-0.1l0.1-0.3c0,0,0.1,0.1,0.2,0.1h0.5c0.1,0,0.1,0,0.1-0.1l0.1-0.1C142.1,32.8,142.1,32.8,142.1,32.7z
				 M143.6,31h0.2v2.2h-0.2V31z M146.1,31.1h0.3v1.5c0,0.1,0,0.3-0.1,0.4c0,0.1-0.1,0.2-0.1,0.3s-0.1,0.1-0.2,0.1h-0.3
				c-0.3,0-0.4-0.1-0.6-0.2c-0.1-0.1-0.2-0.3-0.2-0.6v-1.5h0.3v1.4c0,0.2,0,0.4,0.1,0.5s0.2,0.1,0.4,0.1s0.3,0,0.3-0.1
				c0.1-0.1,0.1-0.2,0.1-0.5V31.1z M146.8,31.1h1.2v0.3h-0.9v0.7h0.8v0.3h-0.8v1h-0.3C146.8,33.4,146.8,31.1,146.8,31.1z
				 M149.1,32.2h0.7v1l-0.1,0.1c0,0-0.1,0-0.1,0.1h-0.4c-0.1,0-0.3,0-0.4-0.1s-0.2-0.1-0.3-0.2c-0.1-0.1-0.2-0.2-0.2-0.4
				c0-0.1-0.1-0.3-0.1-0.5c0-0.2,0-0.4,0.1-0.5s0.1-0.3,0.2-0.4c0.1-0.1,0.2-0.2,0.3-0.2s0.2-0.1,0.3-0.1h0.3c0.1,0,0.1,0,0.2,0.1
				l-0.1,0.3c-0.1,0-0.2-0.1-0.4-0.1h-0.3c-0.1,0-0.2,0.1-0.2,0.1c-0.1,0.1-0.1,0.2-0.2,0.3c0,0.1-0.1,0.3-0.1,0.4
				c0,0.2,0,0.3,0.1,0.4c0,0.1,0.1,0.2,0.1,0.3l0.2,0.2c0.1,0,0.2,0.1,0.3,0.1h0.2c0.1,0,0.1,0,0.1-0.1v-0.6l-0.5-0.1v-0.1H149.1z"
				/>
			<g>
				<path class="st0" d="M130,27.6c-0.4,0.5-0.8,1.1-1.2,1.6c-0.1,0.2-0.3,0.1-0.4,0c-0.7-0.4-1.3-0.9-1.6-1.7
					c0-0.1-0.1-0.1-0.1-0.2c-0.3,0.3-0.7,0.6-1,0.9c-1.7,1.3-4,1.4-5.8,0.4c-1.4-0.9-2-2.2-2-3.8c0-2,1.2-3.6,3.2-4.4
					c1.6-0.6,3.2-0.7,4.9-0.6h0.2v-0.3v-1.4c0-1.2-0.6-1.8-1.8-2c-1.3-0.2-2.5,0.2-3.7,0.9c-0.4,0.2-0.7,0.5-1.1,0.7
					c-0.4-0.6-0.8-1.2-1.2-1.9c0.1-0.1,0.2-0.1,0.3-0.2c2-1.2,4.1-1.9,6.4-1.8c1.2,0.1,2.3,0.4,3,1.4c0.6,0.7,0.8,1.6,0.8,2.5v6.9
					C128.9,25.8,129.1,26.8,130,27.6L130,27.6z M126.2,23.5C126.3,23.5,126.3,23.5,126.2,23.5c0-0.5,0-1,0.1-1.5
					c0-0.2-0.1-0.3-0.3-0.3c-0.9,0-1.8,0-2.7,0.2c-1.6,0.3-2.6,1.6-2.5,3.3c0.1,1.4,1.2,2.2,2.5,2.1c1.1-0.1,2-0.7,2.7-1.6
					c0.1-0.1,0.2-0.4,0.2-0.6C126.3,24.5,126.2,24,126.2,23.5z M130.1,14.3h2.8c0.1,0,0.2,0.2,0.3,0.3c0.6,1.7,1.1,3.4,1.7,5.1
					c0.5,1.5,1,3,1.5,4.6c0.1-0.2,0.2-0.4,0.2-0.5c1-3,2-6.1,3-9.2c0.1-0.3,0.2-0.3,0.5-0.3h2.5c0,0.1-0.1,0.2-0.1,0.3
					c-1.6,4.6-3.2,9.3-4.8,13.9c-0.1,0.2-0.2,0.3-0.5,0.3h-1.9c-0.2,0-0.3-0.1-0.4-0.3c-1.3-4.1-2.6-8.2-4-12.2
					c-0.2-0.6-0.4-1.1-0.6-1.7C130.1,14.6,130.1,14.5,130.1,14.3z M111.6,20.1h4.1v2.3h-4.1v6.4h-2.7v-0.3V14.6
					c0-0.3,0.1-0.4,0.4-0.4h7.8c-0.1,0.8-0.3,1.5-0.4,2.2c0,0.1-0.2,0.1-0.3,0.1h-4.7C111.6,17.8,111.6,18.9,111.6,20.1z"/>
			</g>
		</g>
		<g>
			<path class="st0" d="M167.4,27c0-1.8,1.4-3.4,3.4-3.4c1.1,0,1.8,0.3,2.5,0.9l-0.7,0.9c-0.5-0.4-1-0.7-1.8-0.7
				c-1.2,0-2.1,1-2.1,2.3s0.9,2.3,2.2,2.3c0.6,0,1.2-0.2,1.6-0.5v-1.2h-1.7v-1h2.8v2.7c-0.6,0.5-1.6,1-2.7,1
				C168.7,30.3,167.4,28.9,167.4,27L167.4,27z M174.6,27c0-1.8,1.4-3.4,3.4-3.4s3.4,1.5,3.4,3.3s-1.4,3.4-3.4,3.4
				S174.6,28.8,174.6,27z M180.3,27c0-1.3-0.9-2.3-2.2-2.3c-1.3,0-2.2,1-2.2,2.3s0.9,2.3,2.2,2.3C179.4,29.3,180.3,28.3,180.3,27z
				 M181.9,23.7h1.3l2,5l2-5h1.2l-2.7,6.6h-1L181.9,23.7z M189.4,23.7h4.8v1h-3.7v1.7h3.3v1h-3.3v1.7h3.7v1h-4.9v-6.4L189.4,23.7z
				 M195.6,23.7h2.9c0.8,0,1.5,0.2,1.9,0.7c0.3,0.4,0.5,0.8,0.5,1.4c0,1.1-0.6,1.7-1.6,2l1.8,2.5h-1.3l-1.6-2.3h-1.4v2.3h-1.1
				L195.6,23.7L195.6,23.7z M198.5,27c0.8,0,1.3-0.4,1.3-1.1s-0.5-1.1-1.3-1.1h-1.7V27H198.5z M202.4,23.7h1.1l3.5,4.5v-4.5h1.1v6.5
				h-1l-3.6-4.6v4.6h-1.1V23.7z M209.4,27c0-1.8,1.4-3.4,3.4-3.4s3.4,1.5,3.4,3.3s-1.4,3.4-3.4,3.4S209.4,28.8,209.4,27z M215,27
				c0-1.3-0.9-2.3-2.2-2.3c-1.3,0-2.2,1-2.2,2.3s0.9,2.3,2.2,2.3C214.1,29.3,215,28.3,215,27z M220.4,23.7h4.8v1h-3.7v1.8h3.3v1
				h-3.3v2.6h-1.1L220.4,23.7L220.4,23.7z M226.5,23.7h4.8v1h-3.7v1.7h3.3v1h-3.3v1.7h3.7v1h-4.9v-6.4L226.5,23.7z M232.7,23.7h2.4
				c2,0,3.5,1.4,3.5,3.2c0,1.8-1.4,3.3-3.5,3.3h-2.4V23.7z M235.2,29.2c1.4,0,2.3-0.9,2.3-2.2c0-1.3-0.9-2.2-2.3-2.2h-1.3v4.4
				C233.9,29.2,235.2,29.2,235.2,29.2z M240,23.7h4.8v1h-3.7v1.7h3.3v1h-3.3v1.7h3.7v1H240C240,30.1,240,23.7,240,23.7z M246.2,23.7
				h2.9c0.8,0,1.5,0.2,1.9,0.7c0.3,0.4,0.5,0.8,0.5,1.4c0,1.1-0.6,1.7-1.6,2l1.8,2.5h-1.3l-1.6-2.3h-1.4v2.3h-1.1L246.2,23.7
				L246.2,23.7z M249.1,27c0.8,0,1.3-0.4,1.3-1.1s-0.5-1.1-1.3-1.1h-1.7V27H249.1z M255.3,23.7h1.1l2.9,6.6H258l-0.7-1.6h-3.1
				l-0.7,1.6h-1.2L255.3,23.7L255.3,23.7z M256.9,27.7l-1.1-2.6l-1.1,2.6H256.9z M260.3,23.7h1.1v5.5h3.4v1h-4.6v-6.5H260.3z"/>
		</g>
	</g>
</g>
</svg>
