<svg xmlns="http://www.w3.org/2000/svg" width="140.7" height="26.582"><g fill-rule="evenodd" clip-rule="evenodd" fill="#FFF"><path d="M88.864 10.651l3.335 1.891.026 3.832-3.306 1.939-3.328-1.892-.028-3.831 3.301-1.939zM85.228 26.582l3.95-2.32-.034-4.582-3.981-2.263-3.955 2.319.036 4.584 3.984 2.262zM77.981 18.57l2.578 1.461.022 2.967-2.558 1.5-2.575-1.464-.022-2.965 2.555-1.499zM71.733 10.671l3.954 2.245.031 4.545-3.92 2.301-3.952-2.245-.033-4.545 3.92-2.301zM75.734 4.575l3.199 1.816.027 3.678-3.172 1.862-3.198-1.817-.026-3.677 3.17-1.862zM85.474 11.892l5.126-3.01-.043-5.945L85.386 0l-5.13 3.009.044 5.947 5.174 2.936z"/></g><g fill="#FFF"><path d="M99.288 4.578v9.895c0 2.99 1.15 4.499 3.118 4.499 2.043 0 3.17-1.432 3.17-4.499V4.578h3.886v9.664c0 5.318-2.686 7.849-7.186 7.849-4.346 0-6.875-2.429-6.875-7.9V4.578h3.887zM112.859 4.578h10.51v3.196h-6.623v3.937h6.188v3.171h-6.188v6.928h-3.887V4.578zM140.7 21.016c-1.203.41-3.477.972-5.75.972-3.146 0-5.422-.792-7.007-2.3-1.559-1.51-2.428-3.759-2.428-6.291.026-5.725 4.191-8.999 9.841-8.999 2.225 0 3.938.437 4.781.82l-.818 3.143c-.945-.435-2.095-.741-3.99-.741-3.244 0-5.725 1.84-5.725 5.572 0 3.581 2.25 5.649 5.445 5.649.869 0 1.585-.101 1.892-.229v-3.629h-2.657V11.94h6.417v9.076z"/></g><g><g fill="#FFF"><path d="M13.121 21.372c-.734.356-2.352.76-4.424.76C3.289 22.131 0 18.743 0 13.537c0-5.613 3.917-9 9.126-9 2.047 0 3.488.43 4.121.757l-.661 2.478c-.807-.353-1.945-.657-3.335-.657-3.462 0-5.963 2.174-5.963 6.269 0 3.766 2.173 6.142 5.94 6.142 1.237 0 2.551-.252 3.385-.605l.508 2.451zM21.412 4.813v17.038h-3.108V4.813h3.108zM30.919 17.024l-1.466 4.827h-3.211l5.463-17.038h3.967l5.537 17.038h-3.364l-1.54-4.827h-5.386zm4.878-2.351l-1.338-4.196c-.33-1.038-.607-2.199-.859-3.187h-.052c-.252.988-.532 2.174-.809 3.187l-1.313 4.196h4.371zM46.112 5.066c1.189-.227 2.908-.378 4.703-.378 2.45 0 4.095.405 5.258 1.366.937.783 1.468 1.971 1.468 3.438 0 2.199-1.492 3.689-3.11 4.248v.074c1.238.454 1.972 1.645 2.375 3.287.558 2.123 1.011 4.095 1.341 4.751h-3.185c-.251-.505-.682-1.895-1.139-4.019-.503-2.223-1.286-2.931-3.06-2.981h-1.566v7h-3.085V5.066zm3.085 7.51h1.846c2.098 0 3.388-1.113 3.388-2.807 0-1.846-1.291-2.731-3.313-2.731-.986 0-1.619.077-1.92.152v5.386z"/></g></g></svg>