<svg version="1.1" id="Camada_1" xmlns="http://www.w3.org/2000/svg" x="0" y="0" viewBox="0 0 272.2 39.4" xml:space="preserve"><style>.st0{fill:#fff}</style><path class="st0" d="M51.8 23.4l1.7 1v2l-1.7 1-1.8-1v-2l1.8-1zm-1.9 8.4l2-1.3v-2.4L49.8 27l-2.1 1.2.1 2.4 2.1 1.2zm-3.8-4.2l1.3.7v1.6l-1.3.8-1.4-.8v-1.6l1.4-.7zm-3.3-4.2l2 1.2.1 2.4-2.1 1.2-2.1-1.2v-2.4l2.1-1.2zm2.1-3.2l1.7 1v1.9l-1.7 1-1.7-1v-1.9l1.7-1zm5.1 3.9l2.7-1.6v-3.2l-2.8-1.5-2.7 1.6.1 3.1 2.7 1.6zM12 29c-.4.2-1.2.4-2.3.4-2.8 0-4.6-1.8-4.6-4.5 0-3 2.1-4.8 4.8-4.8 1.1 0 1.8.2 2.2.4l-.3 1.3c-.4-.2-1-.3-1.8-.3-1.8 0-3.1 1.2-3.1 3.3 0 2 1.1 3.3 3.1 3.3.6 0 1.3-.1 1.8-.3L12 29zm4.3-8.7v9h-1.6v-9h1.6zm5 6.4l-.8 2.6h-1.7l2.9-9h2.1l2.9 9H25l-.8-2.6h-2.9zm2.6-1.2l-.7-2.2c-.2-.5-.3-1.2-.5-1.7-.1.5-.3 1.2-.4 1.7l-.7 2.2h2.3zm5.4-5.1c.6-.1 1.5-.2 2.5-.2 1.3 0 2.2.2 2.8.7.5.4.8 1 .8 1.8 0 1.2-.8 2-1.6 2.2.7.2 1 .9 1.2 1.7.3 1.1.5 2.2.7 2.5H34c-.1-.3-.4-1-.6-2.1-.3-1.2-.7-1.6-1.6-1.6H31v3.7h-1.6v-8.7h-.1zm1.6 4h1c1.1 0 1.8-.6 1.8-1.5 0-1-.7-1.4-1.7-1.4-.5 0-.9 0-1 .1v2.8h-.1zM57.2 20.2v5.2c0 1.6.6 2.4 1.6 2.4 1.1 0 1.7-.8 1.7-2.4v-5.2h2v5.1c0 2.8-1.4 4.1-3.8 4.1-2.3 0-3.6-1.3-3.6-4.1v-5h2.1v-.1zm7.2 0h5.5v1.7h-3.5V24h3.2v1.7h-3.2v3.6h-2v-9.1zM79 28.8c-.6.2-1.8.5-3 .5-1.7 0-2.8-.4-3.7-1.2-.8-.8-1.3-2-1.3-3.3 0-3 2.2-4.7 5.2-4.7 1.2 0 2.1.2 2.5.4l-.4 1.7c-.5-.2-1.1-.4-2.1-.4-1.7 0-3 1-3 2.9s1.2 3 2.9 3c.5 0 .8-.1 1-.1v-1.9h-1.4v-1.6H79v4.7zM101.4 31.1h1.2v.3h-.9v.7h.8v.3h-.8v1h-.3v-2.3zm2.6 1.6h-.8l-.2.6h-.3l.8-2.3h.1l.8 2.3h-.3l-.1-.6zm-.6-.2h.6l-.2-.6-.1-.3-.1.4-.2.5zm2.7.7c-.1.1-.1.1-.2.1h-.3c-.1 0-.2 0-.4-.1-.1 0-.2-.1-.3-.2s-.2-.2-.2-.4c-.1-.1-.1-.3-.1-.5s0-.4.1-.5.1-.3.2-.4.2-.2.3-.2c.1 0 .2-.1.3-.1h.3c.1 0 .1 0 .2.1l-.1.3c-.1 0-.2-.1-.4-.1h-.2c-.1 0-.2.1-.2.2-.1.1-.1.2-.1.3 0 .1-.1.3-.1.4 0 .1 0 .3.1.4 0 .1.1.2.1.3l.2.2c.1 0 .2.1.3.1h.2c.1 0 .1 0 .2-.1l.1.2zm1.6-2.1h.3v1.5c0 .1 0 .3-.1.4 0 .1-.1.2-.1.3s-.1.1-.2.1h-.3c-.3 0-.4-.1-.6-.2-.1-.1-.2-.3-.2-.6v-1.5h.3v1.4c0 .2 0 .4.1.5s.2.1.4.1.3 0 .3-.1c.1-.1.1-.2.1-.5v-1.4zm2.1 2.2h-1.3V31h.3v2h1v.3zm.3-2.2h.6c.2 0 .3 0 .4.1s.2.1.3.2c.1.1.1.2.2.4 0 .1.1.3.1.5 0 .1 0 .3-.1.4 0 .1-.1.3-.2.4l-.3.3c-.1.1-.3.1-.5.1h-.6l.1-2.4zm.6.2c-.1 0-.1 0 0 0h-.4V33h.4c.1 0 .3 0 .4-.1s.2-.1.2-.2c.1-.1.1-.2.1-.3v-.6c0-.1-.1-.2-.1-.3-.1-.1-.1-.2-.2-.2-.2.1-.3 0-.4 0zm2.3 1.4h-.8l-.2.6h-.3l.8-2.3h.1l.8 2.3h-.3l-.1-.6zm-.6-.2h.6l-.2-.6-.1-.3-.1.4-.2.5zm1.4-1.4h.6c.2 0 .3 0 .4.1s.2.1.3.2c.1.1.1.2.2.4 0 .1.1.3.1.5 0 .1 0 .3-.1.4 0 .1-.1.3-.2.4l-.3.3c-.1.1-.3.1-.5.1h-.6l.1-2.4zm.6.2h-.4V33h.4c.1 0 .3 0 .4-.1s.2-.1.2-.2c.1-.1.1-.2.1-.3v-.6c0-.1-.1-.2-.1-.3-.1-.1-.1-.2-.2-.2-.1.1-.3 0-.4 0zm1.4-.2h1.2v.3h-.9v.6h.8v.3h-.8v.7h.9v.3h-1.2v-2.2zm2.5 0h.6c.2 0 .3 0 .4.1s.2.1.3.2c.1.1.1.2.2.4 0 .1.1.3.1.5 0 .1 0 .3-.1.4 0 .1-.1.3-.2.4l-.3.3c-.1.1-.3.1-.5.1h-.6l.1-2.4zm.6.2c-.1 0-.1 0 0 0h-.4V33h.4c.1 0 .3 0 .4-.1s.2-.1.2-.2c.1-.1.1-.2.1-.3v-.6c0-.1-.1-.2-.1-.3-.1-.1-.1-.2-.2-.2-.2.1-.3 0-.4 0zm1.4-.2h1.2v.3h-.9v.6h.8v.3h-.8v.7h.9v.3h-1.2v-2.2zm3.4 1.6h-.8l-.2.6h-.3l.8-2.3h.1l.8 2.3h-.3l-.1-.6zm-.7-.2h.6l-.2-.6-.1-.3-.1.4-.2.5zm1.4-1.4h.7c.1 0 .2.1.2.1.1 0 .1.1.2.2 0 .1.1.2.1.3v.2c0 .1-.1.1-.1.2s-.1.1-.2.1-.1.1-.2.1l.1.1.5.9h-.3l-.6-.9h-.3v1h-.3v-2.3h.2zm.6.2s-.1 0 0 0h-.4v.8h.4c.1 0 .1 0 .1-.1l.1-.1v-.2c0-.1 0-.2-.1-.3.1 0 0-.1-.1-.1zm2.5.1h-.7v2h-.3v-2h-.7v-.3h1.6l.1.3zm.3-.3h1.2v.3h-.9v.6h.8v.3h-.8v.7h.9v.3h-1.2v-2.2zm2.6 1.6c0-.1 0-.2-.1-.2-.1-.1-.1-.1-.2-.1s-.2-.1-.2-.1c-.1 0-.2-.1-.2-.1l-.2-.2c-.1-.1-.1-.2-.1-.3 0-.2.1-.3.2-.4.1-.1.3-.2.5-.2h.3c.1 0 .2 0 .2.1l-.1.3s-.1 0-.2-.1h-.3c-.1 0-.2 0-.3.1s-.1.1-.1.2 0 .1.1.2.1.1.2.1.2.1.2.1c.1 0 .2.1.2.1l.2.2c.1.1.1.2.1.3s0 .2-.1.3c0 .1-.1.2-.1.2-.1.1-.1.1-.2.1h-.7c-.1 0-.2-.1-.2-.1l.1-.3s.1.1.2.1h.5c.1 0 .1 0 .1-.1l.1-.1c.1 0 .1 0 .1-.1zm2-.1l.1.4.1-.4.5-1.5h.3l-.8 2.3h-.1l-.8-2.3h.3l.4 1.5zm1.3-1.3h-.2v-.2h.7v.2h-.2v1.8h.2v.2h-.7v-.2h.2v-1.8zm1.9 1.4c0-.1 0-.2-.1-.2-.1-.1-.1-.1-.2-.1s-.2-.1-.2-.1c-.1 0-.2-.1-.2-.1l-.2-.2c-.1-.1-.1-.2-.1-.3 0-.2.1-.3.2-.4.1-.1.3-.2.5-.2h.3c.1 0 .2 0 .2.1l-.1.3s-.1 0-.2-.1h-.3c-.1 0-.2 0-.3.1s-.1.1-.1.2 0 .1.1.2.1.1.2.1.2.1.2.1c.1 0 .2.1.2.1l.2.2c.1.1.1.2.1.3s0 .2-.1.3c0 .1-.1.2-.1.2-.1.1-.1.1-.2.1h-.7c-.1 0-.2-.1-.2-.1l.1-.3s.1.1.2.1h.5c.1 0 .1 0 .1-.1l.1-.1c.1 0 .1 0 .1-.1zm1.9-1.6h.3v1.5c0 .1 0 .3-.1.4 0 .1-.1.2-.1.3s-.1.1-.2.1h-.3c-.3 0-.4-.1-.6-.2-.1-.1-.2-.3-.2-.6v-1.5h.3v1.4c0 .2 0 .4.1.5s.2.1.4.1.3 0 .3-.1c.1-.1.1-.2.1-.5v-1.4zm1.8 1.6h-.8l-.2.6h-.3l.8-2.3h.1l.8 2.3h-.3l-.1-.6zm-.7-.2h.6l-.2-.6-.1-.3-.1.4-.2.5zm1.6-1.2h-.2v-.2h.7v.2h-.2v1.8h.2v.2h-.7v-.2h.2v-1.8zm1.9 1.4c0-.1 0-.2-.1-.2-.1-.1-.1-.1-.2-.1s-.2-.1-.2-.1c-.1 0-.2-.1-.2-.1l-.2-.2c-.1-.1-.1-.2-.1-.3 0-.2.1-.3.2-.4.1-.1.3-.2.5-.2h.3c.1 0 .2 0 .2.1l-.1.3s-.1 0-.2-.1h-.3c-.1 0-.2 0-.3.1s-.1.1-.1.2 0 .1.1.2.1.1.2.1.2.1.2.1c.1 0 .2.1.2.1l.2.2c.1.1.1.2.1.3s0 .2-.1.3-.1.2-.1.2c-.1.1-.1.1-.2.1h-.7c-.1 0-.2-.1-.2-.1l.1-.3s.1.1.2.1h.5c.1 0 .1 0 .1-.1l.1-.1c.1 0 .1 0 .1-.1zm1.5-1.7h.2v2.2h-.2V31zm2.5.1h.3v1.5c0 .1 0 .3-.1.4 0 .1-.1.2-.1.3s-.1.1-.2.1h-.3c-.3 0-.4-.1-.6-.2-.1-.1-.2-.3-.2-.6v-1.5h.3v1.4c0 .2 0 .4.1.5s.2.1.4.1.3 0 .3-.1c.1-.1.1-.2.1-.5v-1.4zm.7 0h1.2v.3h-.9v.7h.8v.3h-.8v1h-.3v-2.3zm2.3 1.1h.7v1l-.1.1s-.1 0-.1.1h-.4c-.1 0-.3 0-.4-.1s-.2-.1-.3-.2c-.1-.1-.2-.2-.2-.4 0-.1-.1-.3-.1-.5s0-.4.1-.5.1-.3.2-.4c.1-.1.2-.2.3-.2s.2-.1.3-.1h.3c.1 0 .1 0 .2.1l-.1.3c-.1 0-.2-.1-.4-.1h-.3c-.1 0-.2.1-.2.1-.1.1-.1.2-.2.3 0 .1-.1.3-.1.4 0 .2 0 .3.1.4 0 .1.1.2.1.3l.2.2c.1 0 .2.1.3.1h.2c.1 0 .1 0 .1-.1v-.6l-.5-.1v-.1h.3zM130 27.6c-.4.5-.8 1.1-1.2 1.6-.1.2-.3.1-.4 0-.7-.4-1.3-.9-1.6-1.7 0-.1-.1-.1-.1-.2-.3.3-.7.6-1 .9-1.7 1.3-4 1.4-5.8.4-1.4-.9-2-2.2-2-3.8 0-2 1.2-3.6 3.2-4.4 1.6-.6 3.2-.7 4.9-.6h.2v-1.7c0-1.2-.6-1.8-1.8-2-1.3-.2-2.5.2-3.7.9-.4.2-.7.5-1.1.7-.4-.6-.8-1.2-1.2-1.9.1-.1.2-.1.3-.2 2-1.2 4.1-1.9 6.4-1.8 1.2.1 2.3.4 3 1.4.6.7.8 1.6.8 2.5v6.9c0 1.2.2 2.2 1.1 3zm-3.8-4.1c.1 0 .1 0 0 0 0-.5 0-1 .1-1.5 0-.2-.1-.3-.3-.3-.9 0-1.8 0-2.7.2-1.6.3-2.6 1.6-2.5 3.3.1 1.4 1.2 2.2 2.5 2.1 1.1-.1 2-.7 2.7-1.6.1-.1.2-.4.2-.6.1-.6 0-1.1 0-1.6zm3.9-9.2h2.8c.1 0 .2.2.3.3.6 1.7 1.1 3.4 1.7 5.1.5 1.5 1 3 1.5 4.6.1-.2.2-.4.2-.5 1-3 2-6.1 3-9.2.1-.3.2-.3.5-.3h2.5c0 .1-.1.2-.1.3-1.6 4.6-3.2 9.3-4.8 13.9-.1.2-.2.3-.5.3h-1.9c-.2 0-.3-.1-.4-.3-1.3-4.1-2.6-8.2-4-12.2-.2-.6-.4-1.1-.6-1.7-.2 0-.2-.1-.2-.3zm-18.5 5.8h4.1v2.3h-4.1v6.4h-2.7V14.6c0-.3.1-.4.4-.4h7.8c-.1.8-.3 1.5-.4 2.2 0 .1-.2.1-.3.1h-4.7c-.1 1.3-.1 2.4-.1 3.6z"/><g><path class="st0" d="M167.4 27c0-1.8 1.4-3.4 3.4-3.4 1.1 0 1.8.3 2.5.9l-.7.9c-.5-.4-1-.7-1.8-.7-1.2 0-2.1 1-2.1 2.3s.9 2.3 2.2 2.3c.6 0 1.2-.2 1.6-.5v-1.2h-1.7v-1h2.8v2.7c-.6.5-1.6 1-2.7 1-2.2 0-3.5-1.4-3.5-3.3zm7.2 0c0-1.8 1.4-3.4 3.4-3.4s3.4 1.5 3.4 3.3-1.4 3.4-3.4 3.4-3.4-1.5-3.4-3.3zm5.7 0c0-1.3-.9-2.3-2.2-2.3-1.3 0-2.2 1-2.2 2.3s.9 2.3 2.2 2.3c1.3 0 2.2-1 2.2-2.3zm1.6-3.3h1.3l2 5 2-5h1.2l-2.7 6.6h-1l-2.8-6.6zm7.5 0h4.8v1h-3.7v1.7h3.3v1h-3.3v1.7h3.7v1h-4.9v-6.4h.1zm6.2 0h2.9c.8 0 1.5.2 1.9.7.3.4.5.8.5 1.4 0 1.1-.6 1.7-1.6 2l1.8 2.5h-1.3l-1.6-2.3h-1.4v2.3h-1.1l-.1-6.6zm2.9 3.3c.8 0 1.3-.4 1.3-1.1s-.5-1.1-1.3-1.1h-1.7V27h1.7zm3.9-3.3h1.1l3.5 4.5v-4.5h1.1v6.5h-1l-3.6-4.6v4.6h-1.1v-6.5zm7 3.3c0-1.8 1.4-3.4 3.4-3.4s3.4 1.5 3.4 3.3-1.4 3.4-3.4 3.4-3.4-1.5-3.4-3.3zm5.6 0c0-1.3-.9-2.3-2.2-2.3-1.3 0-2.2 1-2.2 2.3s.9 2.3 2.2 2.3c1.3 0 2.2-1 2.2-2.3zm5.4-3.3h4.8v1h-3.7v1.8h3.3v1h-3.3v2.6h-1.1v-6.4zm6.1 0h4.8v1h-3.7v1.7h3.3v1h-3.3v1.7h3.7v1h-4.9v-6.4h.1zm6.2 0h2.4c2 0 3.5 1.4 3.5 3.2 0 1.8-1.4 3.3-3.5 3.3h-2.4v-6.5zm2.5 5.5c1.4 0 2.3-.9 2.3-2.2 0-1.3-.9-2.2-2.3-2.2h-1.3v4.4h1.3zm4.8-5.5h4.8v1h-3.7v1.7h3.3v1h-3.3v1.7h3.7v1H240v-6.4zm6.2 0h2.9c.8 0 1.5.2 1.9.7.3.4.5.8.5 1.4 0 1.1-.6 1.7-1.6 2l1.8 2.5h-1.3l-1.6-2.3h-1.4v2.3h-1.1l-.1-6.6zm2.9 3.3c.8 0 1.3-.4 1.3-1.1s-.5-1.1-1.3-1.1h-1.7V27h1.7zm6.2-3.3h1.1l2.9 6.6H258l-.7-1.6h-3.1l-.7 1.6h-1.2l3-6.6zm1.6 4l-1.1-2.6-1.1 2.6h2.2zm3.4-4h1.1v5.5h3.4v1h-4.6v-6.5h.1z"/></g></svg>