<svg version="1.1" id="Camada_1" xmlns="http://www.w3.org/2000/svg" x="0" y="0" viewBox="0 0 229.3 17.2" xml:space="preserve"><style>.st0{fill:#fff}</style><path class="st0" d="M46.7 8.1l1.7 1v2l-1.7 1-1.8-1v-2l1.8-1zm-1.9 8.4l2-1.3v-2.4l-2.1-1.1-2.1 1.2.1 2.4 2.1 1.2zM41 12.3l1.3.7v1.6l-1.3.8-1.4-.8V13l1.4-.7zm-3.3-4.2l2 1.2.1 2.4-2.1 1.2-2.1-1.2V9.3l2.1-1.2zm2.1-3.2l1.7 1v1.9l-1.7 1-1.7-1V5.9l1.7-1zm5.1 3.9l2.7-1.6V4l-2.8-1.5-2.7 1.6.1 3.1 2.7 1.6zM6.9 13.7c-.7.3-1.5.4-2.3.4-2.4.2-4.4-1.6-4.6-3.9v-.6c-.1-2.5 1.8-4.7 4.3-4.8h.5c.8 0 1.5.1 2.2.4l-.3 1.3c-.6-.2-1.2-.3-1.8-.3-1.7-.1-3 1.2-3.1 2.9v.4c0 2 1.1 3.3 3.1 3.3.6 0 1.2-.1 1.8-.3l.2 1.2zM11.2 5v9H9.6V5h1.6zm5 6.4l-.8 2.6h-1.7l2.9-9h2.1l2.9 9h-1.7l-.8-2.6h-2.9zm2.6-1.2L18.1 8c-.2-.5-.3-1.2-.5-1.7-.1.5-.3 1.2-.4 1.7l-.7 2.2h2.3zm5.4-5.1c.8-.1 1.7-.2 2.5-.2 1-.1 2 .1 2.8.7.5.4.8 1.1.8 1.8 0 1-.6 1.9-1.6 2.2.7.2 1 .9 1.2 1.7.2.8.4 1.7.7 2.5h-1.7c-.3-.7-.5-1.4-.6-2.1-.3-1.2-.7-1.6-1.6-1.6h-.8v3.7h-1.6l-.1-8.7zm1.6 4h1c1.1 0 1.8-.6 1.8-1.5s-.7-1.4-1.7-1.4c-.3 0-.7 0-1 .1l-.1 2.8zM52.1 4.9v5.2c0 1.6.6 2.4 1.6 2.4s1.7-.8 1.7-2.4V4.9h2V10c0 2.8-1.4 4.1-3.8 4.1S50 12.8 50 10V5l2.1-.1zm7.2 0h5.5v1.7h-3.5v2.1h3.2v1.7h-3.2V14h-2V4.9zm14.6 8.6c-1 .3-2 .5-3 .5-1.3.1-2.7-.3-3.7-1.2-.8-.9-1.3-2.1-1.3-3.3 0-3 2.2-4.7 5.2-4.7.9 0 1.7.1 2.5.4l-.4 1.7c-.7-.3-1.4-.4-2.1-.4-1.5-.1-2.9 1-3 2.5v.4c-.1 1.5 1 2.9 2.5 3h.4c.5 0 .8-.1 1-.1v-1.9h-1.4V8.8h3.3v4.7zM196.1 6.2c1.8 0 2.6.7 2.6 2 0 .7-.5 1.3-1.1 1.5.9.2 1.5 1 1.5 1.9 0 1.2-.9 2.1-2.9 2.1h-2.6l-.1-.1V6.3l.1-.1h2.5zm-1.3 3h1.2c1.1 0 1.4-.6 1.4-1.1S197.1 7 196 7h-1.3l.1 2.2zm0 .9v2.6h1.4c1.3 0 1.6-.7 1.6-1.3 0-.5-.3-1.3-1.6-1.3h-1.4zM203.8 10.3c.4.2.7.5.9.9l.5 1.2c.1.3.3.6.5.8-.2.2-.5.4-.9.4-.5 0-.6-.2-.8-.7l-.6-1.5c-.1-.5-.6-.9-1.2-.9h-1v3H200V6.3l.1-.1h2.6c1.7 0 2.7.8 2.7 2.2-.1.9-.7 1.7-1.6 1.9zm-2.5-.6h1.3c1.2 0 1.5-.7 1.5-1.3 0-.6-.3-1.3-1.5-1.3h-1.3v2.6zM208.2 11.8l-.6 1.8h-.6c-.2 0-.4 0-.6-.1v-.1l2.7-7.3h1.4l2.7 7.3c-.2.1-.5.2-.7.1-.4 0-.6-.1-.8-.6l-.4-1.3-3.1.2zm.4-1h2.4l-.6-1.6c-.2-.6-.5-1.4-.6-2h-.1c-.1.5-.3 1.2-.5 1.6l-.6 2zM214.4 12c.7.4 1.6.7 2.4.7 1 0 1.5-.4 1.5-1s-.4-.9-1.1-1.2l-1.4-.6c-1-.4-1.6-.9-1.6-1.9 0-1.2 1.1-2.1 2.7-2.1.9 0 1.7.2 2.5.6 0 .4-.2.7-.5.9-.6-.3-1.3-.5-2-.5-.9 0-1.4.4-1.4 1s.4.7 1 1l1.4.5c1 .4 1.8 1 1.8 2 0 1.2-1 2.2-2.9 2.2-1 0-2-.3-2.9-.8 0-.2.2-.6.5-.8zM221.1 6.2h1.2v7.4h-1.2V6.2zM229.2 12.6v.4c-.1.4-.4.6-.8.6h-3.1c-.4 0-.7-.2-.7-.6V6.2l.1-.1h.4c.5 0 .7.2.7.7v5.7h3.4zM194.7 3.7h-.5V5h-.8V1.3h1.2c.6-.1 1.2.4 1.3 1v.2c0 .6-.4 1.2-1.1 1.2h-.1zm-.5-.5h.4c.5 0 .6-.4.6-.7s-.1-.7-.6-.7h-.4v1.4zM196.9 4.1l-.3.9h-.3c-.1 0-.2 0-.4-.1l1.2-3.7h.8l1.2 3.7c-.1.1-.2.1-.3.1-.2 0-.3-.1-.4-.4l-.1-.5h-1.4zm.1-.6h1l-.2-.5-.3-1.1c-.1.3-.2.7-.2.9l-.3.7zM199.9 2.3v-.4h-.9v-.6h2.6v.3c0 .2-.1.3-.4.3h-.6V5h-.8l.1-2.7zM204 3.4c.2.1.4.3.4.5l.2.6c0 .2.1.3.2.4-.1.1-.3.2-.5.2-.3 0-.4-.2-.5-.4l-.2-.7c-.1-.2-.3-.4-.5-.4h-.3V5h-.8V1.3h1.2c.8 0 1.3.4 1.3 1.1.1.4-.1.8-.5 1zm-1.1-.4h.5c.3 0 .5-.2.6-.4v-.2c0-.3-.2-.5-.4-.6h-.6V3zM205.4 1.3h.8V5h-.8V1.3zM207.6 4.1l-.2.9h-.3c-.1 0-.2 0-.3-.1l1.2-3.7h.8l1.2 3.7c-.2.1-.3.1-.5.1s-.4-.1-.4-.4l-.2-.5h-1.3zm.2-.6h.9l-.1-.5c-.1-.3-.2-.7-.3-1.1-.1.3-.1.6-.2.9l-.3.7zM212.2 4.1l-.3.9h-.3c-.1 0-.2 0-.4-.1l1.2-3.7h.8l1.2 3.7c0 .1-.2.1-.3.1-.2 0-.4-.1-.4-.4l-.2-.5h-1.3zm.2-.6h.9l-.2-.5c-.1-.3-.2-.7-.3-1.1-.1.3-.2.7-.2.9l-.2.7zM215.2 1.3h1l.4 1.5c0 .2.2.7.2.9 0-.2.2-.8.2-.9l.4-1.5h1l.3 3.7h-.7l-.1-1.7c0-.3-.1-.8-.1-1.2l-.6 2.4h-.8l-.6-2.5c0 .3 0 .8-.1 1.2l-.1 1.8h-.7l.3-3.7zM220 4.1l-.2.9h-.3c-.1 0-.2 0-.4-.1l1.2-3.7h.8l1.2 3.7c-.1.1-.3.1-.4.1-.2 0-.4-.1-.4-.4l-.1-.5H220zm.2-.5h.9L221 3c-.1-.3-.2-.7-.3-1-.1.3-.2.7-.2.9l-.3.7zM225.1 4.7c-.3.2-.6.3-1 .3h-1.3V1.3h1.3c.4 0 .7.1 1 .3.4.4.7 1 .6 1.6.1.5-.1 1.1-.6 1.5zm-1-2.9h-.6v2.6h.6c.7 0 .8-.7.8-1.3s0-1.3-.8-1.3zM226.9 4.1l-.2.9h-.3c-.1 0-.2 0-.4-.1l1.2-3.7h.8l1.2 3.7c-.1.1-.3.1-.4.1-.2 0-.3-.1-.4-.4l-.1-.5h-1.4zm.2-.6h.9l-.2-.5c-.1-.3-.2-.7-.3-1.1-.1.3-.2.7-.2.9l-.2.7zM198.2 0c.1.1.2.2.3.4l-.9.5c-.1-.1-.2-.1-.2-.2l.8-.7zM194.4 15.8h.4c.2 0 .3.1.3.3v.7c-.2.1-.5.1-.7.1-.1 0-.2 0-.3-.1-.1 0-.2-.1-.2-.2-.1-.1-.1-.2-.1-.3v-.4c0-.1 0-.3.1-.4 0-.1.1-.2.2-.3.1-.1.2-.1.3-.2.1 0 .2-.1.3-.1.2 0 .5.1.6.2v.1l-.1.1v.1l-.1.1c-.1-.1-.3-.1-.4-.1-.3 0-.4.2-.4.6s.1.6.4.6h.2v-.4H194.6v-.1c-.1-.1-.2-.2-.2-.3zM196.5 16.7c-.2-.2-.3-.5-.3-.8 0-.1 0-.3.1-.4 0-.1.1-.2.1-.3.1-.1.2-.1.2-.2.1 0 .2-.1.3-.1.1 0 .2 0 .3.1.1 0 .2.1.2.2.1.1.1.2.2.3.1.3.1.5 0 .8 0 .1-.1.2-.2.3l-.2.2c-.1 0-.2.1-.3.1-.1 0-.3-.1-.4-.2zm.2-.4c0 .2.2.2.4.2 0 0 .1 0 .1-.1l.1-.1c0-.1 0-.1.1-.2v-.2-.2-.2c0-.1-.1-.1-.1-.2-.1-.1-.1-.1-.2-.1s-.1 0-.2.1c0 0-.1.1-.1.2V16.1c-.1.1-.1.2-.1.2zM199.6 16.5l.3-1.4h.4l-.5 1.8h-.5c-.1 0-.1-.1-.1-.1l-.4-1.6c.1 0 .2 0 .2-.1h.2s.1.1.1.2l.2.8s0 .2.1.4zM201.9 16.3v.2h.8v.2c0 .1-.1.2-.3.2h-.7c-.1 0-.1 0-.2-.1 0 0-.1-.1-.1-.2V15h1.2v.4h-.7v.4h.6v.4h-.6v.1zM205.2 15.6v.2s0 .1-.1.1l-.1.1-.1.1c.1 0 .2.1.2.2l.1.2c0 .1.1.1.1.2l-.1.1h-.2-.1c0-.1-.1-.1-.1-.2l-.1-.3s0-.1-.1-.1h-.2v.7h-.4v-1.8H204.9c.1 0 .1.1.2.1s.1.1.1.2v.2zm-.9-.3v.5H204.6s.1 0 .1-.1v-.1c0-.1-.1-.2-.2-.2l-.2-.1zM207.8 15v1.8h-.4l-.4-.9-.1-.4v1.3h-.4V15h.4l.4.9c.1.2.1.3.2.4v-1.1c0-.1 0-.1.1-.2.1 0 .1-.1.2-.1zM209.3 16.7c-.2-.2-.3-.5-.3-.8v-.4c0-.1.1-.2.2-.3.1-.1.2-.1.2-.2.2-.1.4-.1.7 0 .1 0 .2.1.2.2.1.1.1.2.2.3.1.3.1.5 0 .8 0 .1-.1.2-.2.3l-.2.2c-.1 0-.2.1-.3.1-.2 0-.4-.1-.5-.2zm.2-.4c.1.2.2.2.4.2h.1l.1-.1v-.2-.4-.2c0-.1-.1-.1-.1-.2-.1-.1-.1-.1-.2-.1s-.1 0-.2.1c0 0-.1.1-.1.2V16.3zM213.7 15.4v.4h.6v.4h-.6v.7h-.4V15h1.1v.2c0 .1 0 .1-.1.1h-.2l-.4.1zM216 16.3v.2h.8v.2c0 .1-.1.2-.3.2h-.7c-.1 0-.1 0-.2-.1 0 0-.1-.1-.1-.2V15h1.2v.4h-.7v.4h.6v.4h-.6v.1zM219.2 16.7c-.1 0-.1.1-.2.1h-1V15h.7c.1 0 .3 0 .4.1.2.1.3.3.4.5v.4c0 .2 0 .3-.1.5-.1 0-.2.1-.2.2zm-.5-.2c.2 0 .4-.2.4-.6s-.1-.6-.4-.6h-.3v1.2h.3zM221.1 16.3v.2h.8v.2c0 .1-.1.2-.3.2h-.7c-.1 0-.1 0-.2-.1 0 0-.1-.1-.1-.2V15h1.1v.4h-.7v.4h.6v.4h-.6l.1.1zM224.4 15.6v.2c0 .1 0 .1-.1.1l-.1.1-.1.1c.1 0 .2.1.2.2l.1.2c0 .1.1.1.1.2l-.1.1h-.2-.1c0-.1-.1-.1-.1-.2l-.1-.3s0-.1-.1-.1h-.2v.7h-.4V15H224.1c.1 0 .1.1.2.1s.1.1.1.2v.3zm-.9-.3v.5H223.8s.1 0 .1-.1v-.1c0-.2-.1-.3-.2-.3h-.2zM226 16.5h-.1l-.1.4h-.4l.6-1.8h.4l.6 1.8h-.4c0-.1-.1-.1-.1-.2l-.1-.2h-.4zm0-.4h.4V16c0-.2-.1-.3-.1-.5 0 .2-.1.3-.1.5l-.2.1zM228.8 16.5h.5v.2c0 .1 0 .1-.1.1s-.1.1-.2 0h-.6c-.1 0-.2-.1-.2-.2V15h.2c.2 0 .2.1.2.3v1.2h.2zM169.3 9.7v6c.6-.5 1.3-1 2-1.5.7-4.4 4.9-7.5 9.4-6.7 1.3.2 2.5.7 3.6 1.5 2.3-.4 4.7-.6 7.1-.5l-13.3-5.9-8.8 7.1z"/><path class="st0" d="M177.9 2.4c.1-.1.2-.1.4 0l13.1 5.8v-7h-22v8l8.5-6.8z"/><path class="st0" d="M185.1 8.9l.8-.1h.2l.7-.1h.2c.2 0 .4-.1.6-.1h3.7l-13.3-6-8.8 7.1v6c.6-.5 1.3-1 2-1.5.7-4.4 4.9-7.5 9.4-6.7 1.3.2 2.5.7 3.6 1.5l.9-.1z"/><path class="st0" d="M174.3 9.6c-1.3 1.1-2.2 2.7-2.6 4.3 3.7-2.3 7.8-4 12.1-4.8-2.9-2-6.8-1.8-9.5.5zM186.3 11.3c-5.3.2-10.5 1.7-15.1 4.3-.7.4-1.3.8-1.9 1.3h22v-5.6c-1.7-.1-3.3-.1-5 0z"/><path d="M104 1.8h8.1l-.4 2.4h-5v3.4h4.2V10h-4.2v6.4H104V1.8zm10.8 3.4l-1.2-1.9c1.8-1.2 3.9-1.9 6.1-2 3.4 0 4.3 2.1 4.3 3.7v7.6c0 .9.4 1.8 1.1 2.4l-1.3 1.7c-.4-.1-.8-.4-1.1-.7-.4-.3-.7-.8-.8-1.3-1 1.2-2.5 1.9-4.1 2-2.5 0-4.6-1.4-4.6-4.4s2.5-4.8 6-5.1c.8-.1 1.5-.1 2.3 0V5.3c0-.7-.4-1.8-2.4-1.8-2.3.1-4.3 1.7-4.3 1.7m6.6 4l-.1 3.6s-1.2 1.8-3.1 1.8c-1.2 0-2.3-1-2.3-2.2V12c.1-1.6 1.4-2.8 2.9-2.8 2.2-.2 2.6 0 2.6 0m11.8-3.3c.5-1.4.9-2.7 1.3-4.1h2.9l-5 14.6h-2.6l-4.7-14.6h2.9l2.6 8c.2.7.4 1.3.7 2 .1-.2.1-.4.2-.5.6-1.8 1.2-3.6 1.7-5.4" fill-rule="evenodd" clip-rule="evenodd" fill="#fff"/></svg>