<?xml version="1.0" encoding="utf-8"?>
<!-- Generator: Adobe Illustrator 23.0.1, SVG Export Plug-In . SVG Version: 6.00 Build 0)  -->
<svg version="1.1" id="Camada_1" xmlns="http://www.w3.org/2000/svg" xmlns:xlink="http://www.w3.org/1999/xlink" x="0px" y="0px"
	 viewBox="0 0 229.3 17.2" style="enable-background:new 0 0 229.3 17.2;" xml:space="preserve">
<style type="text/css">
	.st0{fill:#FFFFFF;}
	.st1{fill-rule:evenodd;clip-rule:evenodd;fill:#FFFFFF;}
</style>
<path class="st0" d="M46.7,8.1l1.7,1v2l-1.7,1l-1.8-1v-2L46.7,8.1z M44.8,16.5l2-1.3v-2.4l-2.1-1.1l-2.1,1.2l0.1,2.4L44.8,16.5z
	 M41,12.3l1.3,0.7v1.6L41,15.4l-1.4-0.8V13L41,12.3z M37.7,8.1l2,1.2l0.1,2.4l-2.1,1.2l-2.1-1.2V9.3L37.7,8.1z M39.8,4.9l1.7,1v1.9
	l-1.7,1l-1.7-1V5.9L39.8,4.9z M44.9,8.8l2.7-1.6V4l-2.8-1.5l-2.7,1.6l0.1,3.1L44.9,8.8z"/>
<path class="st0" d="M6.9,13.7c-0.7,0.3-1.5,0.4-2.3,0.4c-2.4,0.2-4.4-1.6-4.6-3.9C0,10,0,9.8,0,9.6c-0.1-2.5,1.8-4.7,4.3-4.8
	c0.2,0,0.3,0,0.5,0c0.8,0,1.5,0.1,2.2,0.4L6.7,6.5C6.1,6.3,5.5,6.2,4.9,6.2c-1.7-0.1-3,1.2-3.1,2.9c0,0.1,0,0.3,0,0.4
	c0,2,1.1,3.3,3.1,3.3c0.6,0,1.2-0.1,1.8-0.3L6.9,13.7z M11.2,5v9H9.6V5L11.2,5z M16.2,11.4L15.4,14h-1.7l2.9-9h2.1l2.9,9h-1.7
	l-0.8-2.6H16.2z M18.8,10.2L18.1,8c-0.2-0.5-0.3-1.2-0.5-1.7c-0.1,0.5-0.3,1.2-0.4,1.7l-0.7,2.2H18.8z M24.2,5.1
	c0.8-0.1,1.7-0.2,2.5-0.2c1-0.1,2,0.1,2.8,0.7C30,6,30.3,6.7,30.3,7.4c0,1-0.6,1.9-1.6,2.2c0.7,0.2,1,0.9,1.2,1.7
	c0.2,0.8,0.4,1.7,0.7,2.5h-1.7c-0.3-0.7-0.5-1.4-0.6-2.1c-0.3-1.2-0.7-1.6-1.6-1.6h-0.8v3.7h-1.6L24.2,5.1L24.2,5.1z M25.8,9.1h1
	c1.1,0,1.8-0.6,1.8-1.5s-0.7-1.4-1.7-1.4c-0.3,0-0.7,0-1,0.1L25.8,9.1L25.8,9.1z"/>
<path class="st0" d="M52.1,4.9v5.2c0,1.6,0.6,2.4,1.6,2.4s1.7-0.8,1.7-2.4V4.9h2V10c0,2.8-1.4,4.1-3.8,4.1S50,12.8,50,10V5L52.1,4.9
	L52.1,4.9z M59.3,4.9h5.5v1.7h-3.5v2.1h3.2v1.7h-3.2V14h-2V4.9z M73.9,13.5c-1,0.3-2,0.5-3,0.5c-1.3,0.1-2.7-0.3-3.7-1.2
	c-0.8-0.9-1.3-2.1-1.3-3.3c0-3,2.2-4.7,5.2-4.7c0.9,0,1.7,0.1,2.5,0.4l-0.4,1.7c-0.7-0.3-1.4-0.4-2.1-0.4c-1.5-0.1-2.9,1-3,2.5
	c0,0.1,0,0.3,0,0.4c-0.1,1.5,1,2.9,2.5,3c0.1,0,0.3,0,0.4,0c0.5,0,0.8-0.1,1-0.1v-1.9h-1.4V8.8h3.3V13.5z"/>
<path class="st0" d="M196.1,6.2c1.8,0,2.6,0.7,2.6,2c0,0.7-0.5,1.3-1.1,1.5c0.9,0.2,1.5,1,1.5,1.9c0,1.2-0.9,2.1-2.9,2.1
	c-1,0-1.8,0-2.6,0l-0.1-0.1V6.3l0.1-0.1L196.1,6.2z M194.8,9.2h1.2c1.1,0,1.4-0.6,1.4-1.1S197.1,7,196,7h-1.3L194.8,9.2z
	 M194.8,10.1v2.6h1.4c1.3,0,1.6-0.7,1.6-1.3c0-0.5-0.3-1.3-1.6-1.3L194.8,10.1z"/>
<path class="st0" d="M203.8,10.3c0.4,0.2,0.7,0.5,0.9,0.9l0.5,1.2c0.1,0.3,0.3,0.6,0.5,0.8c-0.2,0.2-0.5,0.4-0.9,0.4
	c-0.5,0-0.6-0.2-0.8-0.7l-0.6-1.5c-0.1-0.5-0.6-0.9-1.2-0.9h-1v3c-0.2,0-0.4,0-0.6,0c-0.2,0-0.4,0-0.6,0V6.3l0.1-0.1h2.6
	c1.7,0,2.7,0.8,2.7,2.2C205.3,9.3,204.7,10.1,203.8,10.3z M201.3,9.7h1.3c1.2,0,1.5-0.7,1.5-1.3c0-0.6-0.3-1.3-1.5-1.3h-1.3V9.7z"/>
<path class="st0" d="M208.2,11.8l-0.6,1.8c-0.2,0-0.4,0-0.6,0c-0.2,0-0.4,0-0.6-0.1v-0.1l2.7-7.3c0.2,0,0.5,0,0.7,0
	c0.2,0,0.5,0,0.7,0l2.7,7.3c-0.2,0.1-0.5,0.2-0.7,0.1c-0.4,0-0.6-0.1-0.8-0.6l-0.4-1.3L208.2,11.8L208.2,11.8z M208.6,10.8h2.4
	l-0.6-1.6c-0.2-0.6-0.5-1.4-0.6-2h-0.1c-0.1,0.5-0.3,1.2-0.5,1.6L208.6,10.8z"/>
<path class="st0" d="M214.4,12c0.7,0.4,1.6,0.7,2.4,0.7c1,0,1.5-0.4,1.5-1s-0.4-0.9-1.1-1.2l-1.4-0.6c-1-0.4-1.6-0.9-1.6-1.9
	c0-1.2,1.1-2.1,2.7-2.1c0.9,0,1.7,0.2,2.5,0.6c0,0.4-0.2,0.7-0.5,0.9c-0.6-0.3-1.3-0.5-2-0.5c-0.9,0-1.4,0.4-1.4,1
	c0,0.6,0.4,0.7,1,1l1.4,0.5c1,0.4,1.8,1,1.8,2c0,1.2-1,2.2-2.9,2.2c-1,0-2-0.3-2.9-0.8C213.9,12.6,214.1,12.2,214.4,12z"/>
<path class="st0" d="M221.1,6.2c0.2,0,0.4,0,0.6,0c0.2,0,0.4,0,0.6,0v7.4c-0.2,0-0.4,0-0.6,0c-0.2,0-0.4,0-0.6,0V6.2z"/>
<path class="st0" d="M229.2,12.6c0,0.1,0,0.3,0,0.4c-0.1,0.4-0.4,0.6-0.8,0.6h-3.1c-0.4,0-0.7-0.2-0.7-0.6c0,0,0-0.1,0-0.1V6.2
	l0.1-0.1h0.4c0.5,0,0.7,0.2,0.7,0.7v5.7c0.4,0,0.7,0,1.1,0H229.2z"/>
<path class="st0" d="M194.7,3.7h-0.5V5c-0.1,0-0.2,0-0.4,0c-0.1,0-0.2,0-0.4,0V1.3l0,0h1.2c0.6-0.1,1.2,0.4,1.3,1c0,0.1,0,0.1,0,0.2
	c0,0.6-0.4,1.2-1.1,1.2C194.9,3.7,194.8,3.7,194.7,3.7z M194.2,3.2h0.4c0.5,0,0.6-0.4,0.6-0.7s-0.1-0.7-0.6-0.7h-0.4V3.2z"/>
<path class="st0" d="M196.9,4.1L196.6,5c-0.1,0-0.2,0-0.3,0c-0.1,0-0.2,0-0.4-0.1l0,0l1.2-3.7c0.1,0,0.3,0,0.4,0c0.1,0,0.3,0,0.4,0
	l1.2,3.7C199,5,198.9,5,198.8,5c-0.2,0-0.3-0.1-0.4-0.4l-0.1-0.5L196.9,4.1L196.9,4.1z M197,3.5h1L197.8,3l-0.3-1.1l0,0
	c-0.1,0.3-0.2,0.7-0.2,0.9L197,3.5z"/>
<path class="st0" d="M199.9,2.3V1.9H199c0-0.2,0-0.4,0-0.6h2.6c0,0.1,0,0.2,0,0.3c0,0.2-0.1,0.3-0.4,0.3h-0.6V5h-0.4h-0.4L199.9,2.3
	z"/>
<path class="st0" d="M204,3.4c0.2,0.1,0.4,0.3,0.4,0.5l0.2,0.6c0,0.2,0.1,0.3,0.2,0.4c-0.1,0.1-0.3,0.2-0.5,0.2
	c-0.3,0-0.4-0.2-0.5-0.4l-0.2-0.7c-0.1-0.2-0.3-0.4-0.5-0.4h-0.3V5h-0.4c-0.1,0-0.2,0-0.4,0V1.3l0,0h1.2c0.8,0,1.3,0.4,1.3,1.1
	C204.6,2.8,204.4,3.2,204,3.4z M202.9,3h0.5c0.3,0,0.5-0.2,0.6-0.4c0-0.1,0-0.1,0-0.2c0-0.3-0.2-0.5-0.4-0.6c0,0-0.1,0-0.1,0h-0.5V3
	z"/>
<path class="st0" d="M205.4,1.3c0.1,0,0.2,0,0.4,0c0.1,0,0.2,0,0.4,0V5h-0.4c-0.1,0-0.2,0-0.4,0V1.3z"/>
<path class="st0" d="M207.6,4.1L207.4,5c-0.1,0-0.2,0-0.3,0c-0.1,0-0.2,0-0.3-0.1l0,0l1.2-3.7c0.3,0,0.6,0,0.8,0l1.2,3.7
	C209.8,5,209.7,5,209.5,5c-0.2,0-0.4-0.1-0.4-0.4l-0.2-0.5L207.6,4.1L207.6,4.1z M207.8,3.5h0.9L208.6,3c-0.1-0.3-0.2-0.7-0.3-1.1
	l0,0c-0.1,0.3-0.1,0.6-0.2,0.9L207.8,3.5z"/>
<path class="st0" d="M212.2,4.1L211.9,5c-0.1,0-0.2,0-0.3,0c-0.1,0-0.2,0-0.4-0.1l0,0l1.2-3.7c0.3,0,0.6,0,0.8,0l1.2,3.7
	C214.4,5,214.2,5,214.1,5c-0.2,0-0.4-0.1-0.4-0.4l-0.2-0.5L212.2,4.1L212.2,4.1z M212.4,3.5h0.9L213.1,3c-0.1-0.3-0.2-0.7-0.3-1.1
	l0,0c-0.1,0.3-0.2,0.7-0.2,0.9L212.4,3.5z"/>
<path class="st0" d="M215.2,1.3c0.2,0,0.3,0,0.5,0c0.2,0,0.3,0,0.5,0l0.4,1.5c0,0.2,0.2,0.7,0.2,0.9l0,0c0-0.2,0.2-0.8,0.2-0.9
	l0.4-1.5c0.2,0,0.3,0,0.5,0c0.2,0,0.3,0,0.5,0l0.3,3.7c-0.1,0-0.2,0-0.4,0c-0.1,0-0.2,0-0.3,0l-0.1-1.7c0-0.3-0.1-0.8-0.1-1.2l0,0
	l-0.6,2.4c-0.1,0-0.3,0-0.4,0c-0.1,0-0.2,0-0.4,0L215.8,2l0,0c0,0.3,0,0.8-0.1,1.2L215.6,5c-0.1,0-0.2,0-0.3,0c-0.1,0-0.2,0-0.4,0
	L215.2,1.3z"/>
<path class="st0" d="M220,4.1L219.8,5c-0.1,0-0.2,0-0.3,0c-0.1,0-0.2,0-0.4-0.1l0,0l1.2-3.7c0.3,0,0.6,0,0.8,0l1.2,3.7
	C222.2,5,222,5,221.9,5c-0.2,0-0.4-0.1-0.4-0.4l-0.1-0.5L220,4.1L220,4.1z M220.2,3.6h0.9L221,3c-0.1-0.3-0.2-0.7-0.3-1l0,0
	c-0.1,0.3-0.2,0.7-0.2,0.9L220.2,3.6z"/>
<path class="st0" d="M225.1,4.7c-0.3,0.2-0.6,0.3-1,0.3h-1.3l0,0V1.3l0,0h1.3c0.4,0,0.7,0.1,1,0.3c0.4,0.4,0.7,1,0.6,1.6
	C225.8,3.7,225.6,4.3,225.1,4.7z M224.1,1.8h-0.6v2.6h0.6c0.7,0,0.8-0.7,0.8-1.3S224.9,1.8,224.1,1.8L224.1,1.8z"/>
<path class="st0" d="M226.9,4.1L226.7,5c-0.1,0-0.2,0-0.3,0c-0.1,0-0.2,0-0.4-0.1l0,0l1.2-3.7c0.1,0,0.3,0,0.4,0c0.1,0,0.3,0,0.4,0
	l1.2,3.7C229.1,5,228.9,5,228.8,5c-0.2,0-0.3-0.1-0.4-0.4l-0.1-0.5L226.9,4.1L226.9,4.1z M227.1,3.5h0.9L227.8,3
	c-0.1-0.3-0.2-0.7-0.3-1.1l0,0c-0.1,0.3-0.2,0.7-0.2,0.9L227.1,3.5z"/>
<path class="st0" d="M198.2,0c0.1,0.1,0.2,0.2,0.3,0.4l-0.9,0.5c-0.1-0.1-0.2-0.1-0.2-0.2L198.2,0z"/>
<path class="st0" d="M194.4,15.8h0.4c0.2,0,0.3,0.1,0.3,0.3v0.7c-0.2,0.1-0.5,0.1-0.7,0.1c-0.1,0-0.2,0-0.3-0.1
	c-0.1,0-0.2-0.1-0.2-0.2c-0.1-0.1-0.1-0.2-0.1-0.3c0-0.1,0-0.3,0-0.4c0-0.1,0-0.3,0.1-0.4c0-0.1,0.1-0.2,0.2-0.3
	c0.1-0.1,0.2-0.1,0.3-0.2c0.1,0,0.2-0.1,0.3-0.1c0.2,0,0.5,0.1,0.6,0.2c0,0,0,0.1,0,0.1l-0.1,0.1v0.1l-0.1,0.1
	c-0.1-0.1-0.3-0.1-0.4-0.1c-0.3,0-0.4,0.2-0.4,0.6s0.1,0.6,0.4,0.6h0.1h0.1v-0.4h-0.1c-0.1,0-0.1,0-0.2,0c0,0,0-0.1,0-0.1
	C194.5,16,194.4,15.9,194.4,15.8z"/>
<path class="st0" d="M196.5,16.7c-0.2-0.2-0.3-0.5-0.3-0.8c0-0.1,0-0.3,0.1-0.4c0-0.1,0.1-0.2,0.1-0.3c0.1-0.1,0.2-0.1,0.2-0.2
	c0.1,0,0.2-0.1,0.3-0.1c0.1,0,0.2,0,0.3,0.1c0.1,0,0.2,0.1,0.2,0.2c0.1,0.1,0.1,0.2,0.2,0.3c0.1,0.3,0.1,0.5,0,0.8
	c0,0.1-0.1,0.2-0.2,0.3c-0.1,0.1-0.1,0.1-0.2,0.2c-0.1,0-0.2,0.1-0.3,0.1C196.8,16.9,196.6,16.8,196.5,16.7z M196.7,16.3
	c0,0.2,0.2,0.2,0.4,0.2c0,0,0.1,0,0.1-0.1c0,0,0.1-0.1,0.1-0.1c0-0.1,0-0.1,0.1-0.2c0-0.1,0-0.1,0-0.2c0-0.1,0-0.1,0-0.2
	c0-0.1,0-0.1,0-0.2c0-0.1-0.1-0.1-0.1-0.2c-0.1-0.1-0.1-0.1-0.2-0.1c-0.1,0-0.1,0-0.2,0.1c0,0-0.1,0.1-0.1,0.2c0,0.1,0,0.1,0,0.2
	c0,0.1,0,0.1,0,0.2c0,0.1,0,0.1,0,0.2C196.7,16.2,196.7,16.3,196.7,16.3L196.7,16.3z"/>
<path class="st0" d="M199.6,16.5l0.3-1.4c0.1,0,0.3,0,0.4,0l0,0l-0.5,1.8h-0.3c-0.1,0-0.1,0-0.2,0c-0.1,0-0.1-0.1-0.1-0.1l-0.4-1.6
	c0.1,0,0.2,0,0.2-0.1c0.1,0,0.1,0,0.2,0c0,0,0.1,0.1,0.1,0.2l0.2,0.8C199.5,16.1,199.5,16.3,199.6,16.5L199.6,16.5z"/>
<path class="st0" d="M201.9,16.3v0.2h0.8c0,0.1,0,0.1,0,0.2c0,0.1-0.1,0.2-0.3,0.2h-0.7c-0.1,0-0.1,0-0.2-0.1c0,0-0.1-0.1-0.1-0.2
	V15h1.2c0,0.1,0,0.1,0,0.2c0,0.1,0,0.1,0,0.2h-0.7v0.4h0.6c0,0.1,0,0.1,0,0.2c0,0.1,0,0.1,0,0.2h-0.6L201.9,16.3z"/>
<path class="st0" d="M205.2,15.6c0,0.1,0,0.1,0,0.2c0,0,0,0.1-0.1,0.1c0,0-0.1,0.1-0.1,0.1l-0.1,0.1c0.1,0,0.2,0.1,0.2,0.2l0.1,0.2
	c0,0.1,0.1,0.1,0.1,0.2c0,0-0.1,0.1-0.1,0.1c-0.1,0-0.1,0-0.2,0c0,0-0.1,0-0.1,0c0-0.1-0.1-0.1-0.1-0.2l-0.1-0.3c0,0,0-0.1-0.1-0.1
	c0,0-0.1,0-0.1,0h-0.1v0.7h-0.2h-0.2v-1.8h0.6c0.1,0,0.2,0,0.3,0c0.1,0,0.1,0.1,0.2,0.1c0.1,0,0.1,0.1,0.1,0.2
	C205.2,15.5,205.2,15.5,205.2,15.6z M204.3,15.3v0.5h0.2c0,0,0.1,0,0.1,0c0,0,0.1,0,0.1-0.1c0,0,0-0.1,0-0.1c0-0.1-0.1-0.2-0.2-0.2
	c0,0,0,0,0,0L204.3,15.3L204.3,15.3z"/>
<path class="st0" d="M207.8,15v1.8h-0.2c-0.1,0-0.2,0-0.2,0l-0.4-0.9l-0.1-0.4l0,0c0,0.3,0,0.5,0,0.8v0.5h-0.4V15h0.2
	c0.1,0,0.2,0,0.2,0l0.4,0.9c0.1,0.2,0.1,0.3,0.2,0.4l0,0c0-0.2,0-0.5,0-0.8v-0.3c0-0.1,0-0.1,0.1-0.2c0.1,0,0.1-0.1,0.2-0.1H207.8z"
	/>
<path class="st0" d="M209.3,16.7c-0.2-0.2-0.3-0.5-0.3-0.8c0-0.1,0-0.3,0-0.4c0-0.1,0.1-0.2,0.2-0.3c0.1-0.1,0.2-0.1,0.2-0.2
	c0.2-0.1,0.4-0.1,0.7,0c0.1,0,0.2,0.1,0.2,0.2c0.1,0.1,0.1,0.2,0.2,0.3c0.1,0.3,0.1,0.5,0,0.8c0,0.1-0.1,0.2-0.2,0.3
	c-0.1,0.1-0.1,0.1-0.2,0.2c-0.1,0-0.2,0.1-0.3,0.1C209.6,16.9,209.4,16.8,209.3,16.7z M209.5,16.3c0.1,0.2,0.2,0.2,0.4,0.2
	c0,0,0,0,0,0h0.1c0,0,0.1-0.1,0.1-0.1c0-0.1,0-0.1,0-0.2c0-0.1,0-0.1,0-0.2v-0.2c0-0.1,0-0.1,0-0.2c0-0.1-0.1-0.1-0.1-0.2
	c-0.1-0.1-0.1-0.1-0.2-0.1c-0.1,0-0.1,0-0.2,0.1c0,0-0.1,0.1-0.1,0.2c0,0.1,0,0.1,0,0.2c0,0.1,0,0.1,0,0.2c0,0.1,0,0.1,0,0.2
	C209.5,16.2,209.5,16.3,209.5,16.3L209.5,16.3z"/>
<path class="st0" d="M213.7,15.4v0.4h0.6c0,0.1,0,0.1,0,0.2c0,0.1,0,0.1,0,0.2h-0.6v0.7c-0.1,0-0.3,0-0.4,0V15h1.1
	c0,0.1,0,0.1,0,0.2c0,0.1,0,0.1-0.1,0.1c-0.1,0-0.1,0-0.2,0L213.7,15.4z"/>
<path class="st0" d="M216,16.3v0.2h0.8c0,0.1,0,0.1,0,0.2c0,0.1-0.1,0.2-0.3,0.2c0,0,0,0,0,0h-0.7c-0.1,0-0.1,0-0.2-0.1
	c0,0-0.1-0.1-0.1-0.2V15h1.2c0,0.1,0,0.1,0,0.2c0,0.1,0,0.1,0,0.2H216v0.4h0.6c0,0.1,0,0.1,0,0.2c0,0.1,0,0.1,0,0.2H216V16.3z"/>
<path class="st0" d="M219.2,16.7c-0.1,0-0.1,0.1-0.2,0.1c-0.1,0-0.2,0-0.3,0H218l0,0V15l0,0h0.7c0.1,0,0.3,0,0.4,0.1
	c0.2,0.1,0.3,0.3,0.4,0.5c0,0.1,0,0.2,0,0.4c0,0.2,0,0.3-0.1,0.5C219.3,16.5,219.2,16.6,219.2,16.7z M218.7,16.5
	c0.2,0,0.4-0.2,0.4-0.6s-0.1-0.6-0.4-0.6h-0.3v1.2L218.7,16.5L218.7,16.5z"/>
<path class="st0" d="M221.1,16.3v0.2h0.8c0,0.1,0,0.1,0,0.2s-0.1,0.2-0.3,0.2h-0.7c-0.1,0-0.1,0-0.2-0.1c0,0-0.1-0.1-0.1-0.2V15h1.1
	c0,0.1,0,0.1,0,0.2c0,0.1,0,0.1,0,0.2h-0.7v0.4h0.6c0,0.1,0,0.1,0,0.2c0,0.1,0,0.1,0,0.2h-0.6L221.1,16.3z"/>
<path class="st0" d="M224.4,15.6c0,0.1,0,0.1,0,0.2c0,0.1,0,0.1-0.1,0.1c0,0-0.1,0.1-0.1,0.1c0,0-0.1,0.1-0.1,0.1
	c0.1,0,0.2,0.1,0.2,0.2l0.1,0.2c0,0.1,0.1,0.1,0.1,0.2c0,0-0.1,0.1-0.1,0.1c-0.1,0-0.1,0-0.2,0c0,0-0.1,0-0.1,0
	c0-0.1-0.1-0.1-0.1-0.2l-0.1-0.3c0,0,0-0.1-0.1-0.1c0,0-0.1,0-0.1,0h-0.1v0.7h-0.2h-0.2V15l0,0h0.6c0.1,0,0.2,0,0.3,0
	c0.1,0,0.1,0.1,0.2,0.1c0.1,0,0.1,0.1,0.1,0.2C224.4,15.4,224.4,15.5,224.4,15.6z M223.5,15.3v0.5h0.2c0,0,0.1,0,0.1,0
	c0,0,0.1,0,0.1-0.1c0,0,0-0.1,0-0.1c0-0.2-0.1-0.3-0.2-0.3L223.5,15.3L223.5,15.3z"/>
<path class="st0" d="M226,16.5h-0.1l-0.1,0.4h-0.2c-0.1,0-0.1,0-0.2,0l0,0l0.6-1.8c0.1,0,0.2,0,0.2,0c0.1,0,0.2,0,0.2,0l0.6,1.8
	c-0.1,0-0.1,0-0.2,0c-0.1,0-0.1,0-0.2,0c0-0.1-0.1-0.1-0.1-0.2l-0.1-0.2L226,16.5L226,16.5z M226,16.1h0.4V16c0-0.2-0.1-0.3-0.1-0.5
	l0,0c0,0.2-0.1,0.3-0.1,0.5L226,16.1z"/>
<path class="st0" d="M228.8,16.5h0.5c0,0.1,0,0.1,0,0.2c0,0.1,0,0.1-0.1,0.1c-0.1,0-0.1,0.1-0.2,0h-0.6c-0.1,0-0.2-0.1-0.2-0.2
	c0,0,0,0,0,0V15h0.2c0.2,0,0.2,0.1,0.2,0.3v1.2L228.8,16.5z"/>
<path class="st0" d="M169.3,9.7v6c0.6-0.5,1.3-1,2-1.5c0.7-4.4,4.9-7.5,9.4-6.7c1.3,0.2,2.5,0.7,3.6,1.5c2.3-0.4,4.7-0.6,7.1-0.5
	l-13.3-5.9L169.3,9.7z"/>
<path class="st0" d="M177.9,2.4c0.1-0.1,0.2-0.1,0.4,0l13.1,5.8V1.2h-22v8L177.9,2.4z"/>
<path class="st0" d="M185.1,8.9L185.1,8.9l0.8-0.1h0.2l0.7-0.1h0.2c0.2,0,0.4-0.1,0.6-0.1h0.2l0.6,0h0.2h0.7h2l-13.3-6l-8.8,7.1v6
	c0.6-0.5,1.3-1,2-1.5l0,0c0.7-4.4,4.9-7.5,9.4-6.7c0,0,0,0,0,0c1.3,0.2,2.5,0.7,3.6,1.5L185.1,8.9z"/>
<path class="st0" d="M174.3,9.6c-1.3,1.1-2.2,2.7-2.6,4.3c3.7-2.3,7.8-4,12.1-4.8C180.9,7.1,177,7.3,174.3,9.6z"/>
<path class="st0" d="M186.3,11.3c-5.3,0.2-10.5,1.7-15.1,4.3c-0.7,0.4-1.3,0.8-1.9,1.3h22v-5.6C189.6,11.2,188,11.2,186.3,11.3z"/>
<path class="st1" d="M104,1.8h8.1l-0.4,2.4h-5v3.4h4.2V10h-4.2v6.4H104V1.8z M114.8,5.2l-1.2-1.9c1.8-1.2,3.9-1.9,6.1-2
	c3.4,0,4.3,2.1,4.3,3.7v7.6c0,0.9,0.4,1.8,1.1,2.4l-1.3,1.7c-0.4-0.1-0.8-0.4-1.1-0.7c-0.4-0.3-0.7-0.8-0.8-1.3
	c-1,1.2-2.5,1.9-4.1,2c-2.5,0-4.6-1.4-4.6-4.4s2.5-4.8,6-5.1c0.8-0.1,1.5-0.1,2.3,0c0,0,0-1.2,0-1.9s-0.4-1.8-2.4-1.8
	C116.8,3.6,114.8,5.2,114.8,5.2 M121.4,9.2l-0.1,3.6c0,0-1.2,1.8-3.1,1.8c-1.2,0-2.3-1-2.3-2.2c0-0.1,0-0.2,0-0.4
	c0.1-1.6,1.4-2.8,2.9-2.8C121,9,121.4,9.2,121.4,9.2 M133.2,5.9c0.5-1.4,0.9-2.7,1.3-4.1h2.9l-5,14.6h-2.6l-4.7-14.6h2.9l2.6,8
	c0.2,0.7,0.4,1.3,0.7,2c0.1-0.2,0.1-0.4,0.2-0.5C132.1,9.5,132.7,7.7,133.2,5.9"/>
</svg>
