<svg xmlns="http://www.w3.org/2000/svg" viewBox="0 0 363.9 39.4"><style></style><g fill="#fff"><path d="M51.8 23.4l1.7 1v2l-1.7 1-1.8-1v-2l1.8-1zM49.9 31.8l2-1.3v-2.4L49.8 27l-2.1 1.2.1 2.4 2.1 1.2zM46.1 27.6l1.3.7v1.6l-1.3.8-1.4-.8v-1.6l1.4-.7zM42.8 23.4l2 1.2.1 2.4-2.1 1.2-2.1-1.2v-2.4l2.1-1.2zM44.9 20.2l1.7 1v1.9l-1.7 1-1.7-1v-1.9l1.7-1zM50 24.1l2.7-1.6v-3.2l-2.8-1.5-2.7 1.6.1 3.1 2.7 1.6z"/></g><g fill="#fff"><path d="M57.2 20.2v5.2c0 1.6.6 2.4 1.6 2.4 1.1 0 1.7-.8 1.7-2.4v-5.2h2v5.1c0 2.8-1.4 4.1-3.8 4.1-2.3 0-3.6-1.3-3.6-4.1v-5h2.1zM64.4 20.2h5.5v1.7h-3.5V24h3.2v1.7h-3.2v3.6h-2v-9.1zM79 28.8c-.6.2-1.8.5-3 .5-1.7 0-2.8-.4-3.7-1.2-.8-.8-1.3-2-1.3-3.3 0-3 2.2-4.7 5.2-4.7 1.2 0 2.1.2 2.5.4l-.4 1.7c-.5-.2-1.1-.4-2.1-.4-1.7 0-3 1-3 2.9s1.2 3 2.9 3c.5 0 .8-.1 1-.1v-1.9h-1.4v-1.6H79v4.7z"/></g><g fill="#fff"><path d="M12 29c-.4.2-1.2.4-2.3.4-2.8 0-4.6-1.8-4.6-4.5 0-3 2.1-4.8 4.8-4.8 1.1 0 1.8.2 2.2.4l-.3 1.3c-.4-.2-1-.3-1.8-.3-1.8 0-3.1 1.2-3.1 3.3 0 2 1.1 3.3 3.1 3.3.6 0 1.3-.1 1.8-.3L12 29zM16.3 20.3v9h-1.6v-9h1.6zM21.3 26.7l-.8 2.6h-1.7l2.9-9h2.1l2.9 9H25l-.8-2.6h-2.9zm2.6-1.2l-.7-2.2c-.2-.5-.3-1.2-.5-1.7-.1.5-.3 1.2-.4 1.7l-.7 2.2h2.3zM29.3 20.4c.6-.1 1.5-.2 2.5-.2 1.3 0 2.2.2 2.8.7.5.4.8 1 .8 1.8 0 1.2-.8 2-1.6 2.2.7.2 1 .9 1.2 1.7.3 1.1.5 2.2.7 2.5H34c-.1-.3-.4-1-.6-2.1-.3-1.2-.7-1.6-1.6-1.6H31v3.7h-1.6v-8.7zm1.6 4h1c1.1 0 1.8-.6 1.8-1.5 0-1-.7-1.4-1.7-1.4-.5 0-.9 0-1 .1v2.8z"/></g><g fill="#fff"><path d="M194.2 16.8c-.7.1-1.5.1-2.2.2-.5 0-1 .1-1.5.2s-1.1.2-1.6.4c-2.8.8-5.9 2.1-8 4-.5.4-1 1-1.5 1.7-.5.8-.9 1.7-.9 2.7 0 1 .3 2.1 1.3 3.2.5.7 1.3 1.3 2.3 2 .5.3 1.1.7 1.6 1 .3.2.6.3.9.5v-.9c.1-1.7.6-3.1 1-4.1.3-.8.7-1.6 1.2-2.3.4-.7.9-1.5 1.4-2.2 1.9-2.7 4.2-4.9 6-6.4m4.1-.2c-.1 0-.1.1-.2.2s-.2.1-.4.3c-.6.5-1.2.9-1.8 1.4-.6.4-1.1.9-1.6 1.4l-1.5 1.5c-2.5 2.6-4.6 5.7-5.6 9.2 0 .1 0 .2-.1.3 0 .1 0 .2-.1.4-.1.6-.2 1.3-.1 2.2 0 1.8-1 2.5-2.1 2-2.3-.9-4.1-2-5.5-3.1-1.5-1.3-2.4-2.7-3-4.3-.2-.6-.3-1.1-.3-1.6s0-1.1.1-1.6c.5-2.6 2.5-4.8 4.5-6.2.3-.2.6-.4 1-.6.4-.2.8-.4 1.2-.7 2.2-1.2 5.3-2.3 8.5-2.8 1.1-.2 2.2-.3 3.3-.3 1-.1 2-.1 3.1-.1 1.3-.8 2.5-1.6 3.8-2.3 1.3-.7 2.7-1.4 4-2.1 6.8-3.2 13.6-4.9 18.8-5.7.1-.1.1-.1.2-.1.3-.2.7-.3 1.1-.3.5 0 .9.2 1.2.5.3.3.5.8.5 1.3s-.2.9-.5 1.3c-.3.3-.7.5-1.2.5-.3 0-.5-.1-.7-.2-.1 0-.1-.1-.2-.1-.1-.1-.2-.2-.4-.3-1 .1-2.1.3-3.2.5-1.2.2-2.4.5-3.5.8-5.4 1.4-10.8 3.5-15.6 6.4-1.5.8-1.7 1.1-3.7 2.2z"/><path d="M184.7 26.3h.3c.1 0 .2 0 .2-.1 0 0 .1-.1.1-.2s0-.1-.1-.2c0 0-.1-.1-.2-.1h-.3v.6zm0-.9h.3c.1 0 .2 0 .2-.1 0 0 .1-.1.1-.2s0-.1-.1-.1c0 0-.1-.1-.2-.1h-.3v.5zm-.7-.8h1.3c.2 0 .4.1.5.2.1.1.2.2.2.4 0 .1 0 .2-.1.3-.1.1-.1.1-.2.1.2 0 .3.1.3.2.1.1.1.2.1.3 0 .1 0 .2-.1.3-.1.1-.1.2-.2.2s-.1.1-.3.1H184v-2.1zm-1.2 1.3l-.2-.8-.2.8h.4zm.2.5h-.8l-.1.4h-.7l.8-2.2h.7l.8 2.2h-.7v-.4zm-2.4-1.8h.7v1.3c0 .1 0 .2-.1.4 0 .1-.1.2-.2.3-.1.1-.2.1-.3.2-.1 0-.3.1-.5.1h-.3c-.1 0-.2 0-.3-.1-.1 0-.2-.1-.2-.2-.1-.1-.1-.2-.1-.3 0-.1-.1-.3-.1-.4v-1.3h.7v1.3c0 .1 0 .2.1.3.1.1.2.1.3.1.1 0 .2 0 .3-.1.1-.1.1-.2.1-.3v-1.3zM196.1 29.2l-.3-1-.3 1h.6zm.2.6h-.9l-.1.4h-.8l1-2.7h.9l1 2.7h-.9l-.2-.4zM198.4 28.6h.4c.1 0 .2 0 .3-.1.1 0 .1-.1.1-.2s0-.1-.1-.2c-.1 0-.1-.1-.3-.1h-.4v.6zm0 1h.4c.1 0 .2 0 .3-.1.1-.1.1-.1.1-.2s0-.1-.1-.2c-.1 0-.2-.1-.3-.1h-.4v.6zm-.8-2.1h1.5c.3 0 .5.1.6.2.1.1.2.3.2.5s0 .3-.1.4c-.1.1-.2.1-.3.2.2 0 .3.1.4.2.1.1.1.3.1.4 0 .1 0 .3-.1.4l-.3.3c-.1 0-.2.1-.3.1H197.5v-2.7zM204 28.6h.5c.1 0 .1 0 .1-.1 0 0 .1-.1.1-.2s0-.2-.1-.2-.2-.1-.3-.1h-.3v.6zm-.8 1.6v-2.7h1.4c.3 0 .5 0 .6.1.1 0 .2.1.3.2.1.1.1.3.1.4 0 .1 0 .3-.1.4l-.3.3c-.1 0-.2.1-.3.1.1 0 .2.1.2.1l.1.1c.1.1.1.1.1.2l.4.8h-.9l-.4-.8c-.1-.1-.1-.2-.2-.2s-.1-.1-.2-.1v1.1h-.8zM210 29.2l-.3-1-.3 1h.6zm.2.6h-.9l-.1.4h-.8l1-2.7h.9l1 2.7h-.9l-.2-.4zM213.5 28.1v1.5h.2c.2 0 .3 0 .4-.1.1 0 .1-.1.2-.2 0-.1.1-.2.1-.5s0-.5-.1-.6c-.1-.1-.2-.2-.5-.2h-.3zm-.8-.6h1.2c.2 0 .4 0 .6.1.1.1.3.2.4.3.1.1.2.3.2.4 0 .2.1.3.1.5 0 .3 0 .5-.1.7-.1.2-.2.3-.3.4-.1.1-.2.2-.4.2s-.3.1-.5.1h-1.2v-2.7zM216.3 28.9c0 .3 0 .5.2.6.1.1.2.2.4.2s.3-.1.4-.2c.1-.1.1-.3.1-.6s-.1-.4-.2-.6c-.1-.1-.2-.2-.4-.2s-.3.1-.4.2c-.1.1-.1.3-.1.6m-.8 0c0-.4.1-.8.4-1 .2-.2.6-.4 1-.4s.8.1 1 .4c.2.2.4.6.4 1 0 .3-.1.6-.2.8-.1.2-.3.4-.5.5-.2.1-.4.2-.7.2-.3 0-.6 0-.7-.1-.2-.1-.4-.2-.5-.5-.2-.4-.2-.6-.2-.9zM223.7 28.6h.5c.1 0 .1 0 .1-.1 0 0 .1-.1.1-.2s0-.2-.1-.2-.2-.1-.3-.1h-.4v.6zm-.9 1.6v-2.7h1.4c.3 0 .5 0 .6.1.1 0 .2.1.3.2.1.1.1.3.1.4 0 .1 0 .3-.1.4s-.1.2-.3.3c-.1 0-.2.1-.3.1.1 0 .2.1.2.1l.1.1c.1.1.1.1.1.2l.4.8h-.9l-.4-.8c-.1-.1-.1-.2-.2-.2s-.1-.1-.2-.1h-.1v1.1h-.7zM220.8 29.6h.4c.1 0 .2 0 .3-.1.1-.1.1-.1.1-.2s0-.1-.1-.2c-.1 0-.2-.1-.3-.1h-.4v.6zm0-1h.4c.1 0 .2 0 .3-.1 0 0 .1-.1.1-.2s0-.1-.1-.2c-.1 0-.1-.1-.3-.1h-.4v.6zm-.9-1.1h1.5c.3 0 .5.1.6.2.1.1.2.3.2.5s0 .3-.1.4c-.1.1-.2.1-.3.2.2 0 .3.1.4.2.1.1.1.3.1.4 0 .1 0 .3-.1.4l-.3.3c-.1 0-.2.1-.3.1H219.8v-2.7zM227.2 29.2l-.3-1-.3 1h.6zm.2.6h-.9l-.1.4h-.8l1-2.7h.9l1 2.7h-.9l-.2-.4zM232.8 27.5h.8v2h1.3v.7h-2.1zM231.4 27.5h.8v2.7h-.8zM228.5 29.3h.8c0 .1.1.2.1.3.1.1.2.2.4.2.1 0 .2 0 .3-.1.1-.1.1-.1.1-.2s0-.1-.1-.2-.2-.1-.4-.2c-.4-.1-.6-.2-.8-.3-.2-.1-.2-.3-.2-.5 0-.1 0-.3.1-.4.1-.1.2-.2.4-.3.2-.1.4-.1.7-.1.3 0 .6.1.8.2.2.1.3.3.3.6h-.8c0-.1-.1-.2-.1-.3-.1-.1-.2-.1-.3-.1-.1 0-.2 0-.2.1l-.1.1s0 .1.1.1c0 0 .1.1.3.1.4.1.6.2.8.2.2.1.3.2.3.3.1.1.1.2.1.4s0 .3-.1.5c-.1.1-.2.3-.4.3-.2.1-.4.1-.6.1-.5 0-.8-.1-.9-.3-.5 0-.6-.2-.6-.5M205.9 27.5h2.5v.7h-.9v2h-.8v-2h-.8zM200.5 27.5h2.2v.6h-1.4v.4h1.3v.6h-1.3v.5h1.4v.6h-2.2zM226.3 24.7l-.4-1.2-.4 1.2h.8zm.3.8h-1.2l-.2.6h-1.1l1.3-3.5h1.2l1.3 3.5h-1.1l-.2-.6zM229.3 23.4v1.9h.3c.2 0 .4 0 .5-.1.1 0 .2-.1.2-.3.1-.1.1-.3.1-.6 0-.4-.1-.6-.2-.8-.1-.1-.3-.2-.6-.2h-.3zm-1.1-.8h1.6c.3 0 .6 0 .8.1.2.1.4.2.5.4.1.2.2.3.3.6.1.2.1.4.1.7 0 .4 0 .7-.1.9-.1.2-.2.4-.4.5-.1.1-.3.2-.5.3-.2.1-.4.1-.6.1h-1.6v-3.6zM222 23.4v1.9h.3c.2 0 .4 0 .5-.1.1 0 .2-.1.2-.3.1-.1.1-.3.1-.6 0-.4-.1-.6-.2-.8-.1-.1-.3-.2-.6-.2h-.3zm-1.1-.8h1.6c.3 0 .6 0 .8.1.2.1.4.2.5.4.1.2.2.3.3.6.1.2.1.4.1.7 0 .4 0 .7-.1.9-.1.2-.2.4-.4.5-.1.1-.3.2-.5.3-.2.1-.4.1-.6.1H221v-3.6zM212.8 24h.8c.1 0 .1-.1.2-.1 0-.1.1-.1.1-.2s0-.2-.1-.3c-.1-.1-.2-.1-.4-.1h-.5v.7zm-1.1 2v-3.5h1.8c.3 0 .6 0 .8.1.2.1.3.2.4.3.1.2.2.3.2.6 0 .2 0 .4-.1.5-.1.1-.2.3-.3.3-.1.1-.2.1-.4.1.1 0 .2.1.3.1l.2.2c.1.1.1.2.1.2l.5 1H214l-.6-1.1c-.1-.1-.1-.2-.2-.3-.1-.1-.2-.1-.3-.1h-.1V26h-1.1zM232 22.6h2.9v.7h-1.8v.6h1.6v.7h-1.6v.7h1.8v.7H232zM219 22.6h1.1v3.5H219zM215.3 24.9l1-.1c0 .2.1.3.1.4.1.1.3.2.5.2s.3 0 .4-.1c.1-.1.1-.2.1-.2 0-.1 0-.2-.1-.2-.1-.1-.3-.1-.5-.2-.5-.1-.8-.2-1-.4-.2-.2-.3-.4-.3-.7 0-.2.1-.3.2-.5s.3-.3.5-.4c.2-.1.5-.1.9-.1s.8.1 1 .2c.2.2.4.4.4.8l-1 .1c0-.2-.1-.3-.2-.3-.1-.1-.2-.1-.4-.1-.1 0-.2 0-.3.1-.1.1-.1.1-.1.2s0 .1.1.1.2.1.4.1c.5.1.8.2 1 .3.2.1.4.2.4.4.1.2.1.3.1.5s-.1.4-.2.6c-.1.2-.3.3-.5.4-.2.1-.5.1-.8.1-.6 0-1-.1-1.2-.3-.4-.3-.5-.5-.5-.9M208.2 22.6h2.9v.7h-1.8v.6h1.6v.7h-1.6v.7h1.8v.7h-2.9zM204.1 22.6h1.1l.8 2.5.7-2.5h1.1l-1.3 3.4h-1.1zM202.6 22.6h1.1v3.5h-1.1zM198.5 22.6h1l1.3 1.9v-1.9h1V26h-1l-1.3-1.9V26h-1zM196.7 22.6h1.1v2.1c0 .2 0 .4-.1.6-.1.2-.2.3-.3.5-.1.1-.3.2-.4.3-.2.1-.5.1-.8.1h-.6c-.2 0-.4-.1-.5-.1-.1-.1-.3-.2-.4-.3-.1-.1-.2-.3-.2-.4-.1-.2-.1-.4-.1-.6v-2.1h1.1v2.1c0 .2.1.3.2.4.1.1.3.2.4.2.2 0 .3-.1.4-.2.1-.1.2-.3.2-.4v-2.2z"/></g><g fill="#fff"><path d="M101.4 31.1h1.2v.3h-.9v.7h.8v.3h-.8v1h-.3v-2.3zM104 32.7h-.8l-.2.6h-.3l.8-2.3h.1l.8 2.3h-.3l-.1-.6zm-.6-.2h.6l-.2-.6-.1-.3-.1.4-.2.5zM106.1 33.2c-.1.1-.1.1-.2.1h-.3c-.1 0-.2 0-.4-.1-.1 0-.2-.1-.3-.2s-.2-.2-.2-.4c-.1-.1-.1-.3-.1-.5s0-.4.1-.5c.1-.1.1-.3.2-.4.1-.1.2-.2.3-.2.1 0 .2-.1.3-.1h.3c.1 0 .1 0 .2.1l-.1.3c-.1 0-.2-.1-.4-.1h-.2c-.1 0-.2.1-.2.2-.1.1-.1.2-.1.3 0 .1-.1.3-.1.4 0 .1 0 .3.1.4 0 .1.1.2.1.3l.2.2c.1 0 .2.1.3.1h.2c.1 0 .1 0 .2-.1l.1.2zM107.7 31.1h.3v1.5c0 .1 0 .3-.1.4 0 .1-.1.2-.1.3s-.1.1-.2.1h-.3c-.3 0-.4-.1-.6-.2-.1-.1-.2-.3-.2-.6v-1.5h.3v1.4c0 .2 0 .4.1.5.1.1.2.1.4.1s.3 0 .3-.1c.1-.1.1-.2.1-.5v-1.4zM109.8 33.3h-1.3V31h.3v2h1v.3zM110.1 31.1h.6c.2 0 .3 0 .4.1.1.1.2.1.3.2.1.1.1.2.2.4 0 .1.1.3.1.5 0 .1 0 .3-.1.4 0 .1-.1.3-.2.4l-.3.3c-.1.1-.3.1-.5.1h-.5-.1v-2.4zm.6.2c-.1 0-.1 0 0 0h-.2-.1-.1V33h.4c.1 0 .3 0 .4-.1.1-.1.2-.1.2-.2.1-.1.1-.2.1-.3v-.3-.3c0-.1-.1-.2-.1-.3-.1-.1-.1-.2-.2-.2-.2.1-.3 0-.4 0zM113 32.7h-.8l-.2.6h-.3l.8-2.3h.1l.8 2.3h-.3l-.1-.6zm-.6-.2h.6l-.2-.6-.1-.3-.1.4-.2.5zM113.8 31.1h.6c.2 0 .3 0 .4.1.1.1.2.1.3.2.1.1.1.2.2.4 0 .1.1.3.1.5 0 .1 0 .3-.1.4 0 .1-.1.3-.2.4l-.3.3c-.1.1-.3.1-.5.1h-.5-.1v-2.4zm.6.2h-.2-.1-.1V33h.4c.1 0 .3 0 .4-.1.1-.1.2-.1.2-.2.1-.1.1-.2.1-.3v-.3-.3c0-.1-.1-.2-.1-.3-.1-.1-.1-.2-.2-.2-.1.1-.3 0-.4 0zM115.8 31.1h1.2v.3h-.9v.6h.8v.3h-.8v.7h.9v.3h-1.2v-2.2zM118.3 31.1h.6c.2 0 .3 0 .4.1.1.1.2.1.3.2.1.1.1.2.2.4 0 .1.1.3.1.5 0 .1 0 .3-.1.4 0 .1-.1.3-.2.4l-.3.3c-.1.1-.3.1-.5.1h-.5-.1v-2.4zm.6.2c-.1 0-.1 0 0 0h-.2-.1-.1V33h.4c.1 0 .3 0 .4-.1.1-.1.2-.1.2-.2.1-.1.1-.2.1-.3v-.3-.3c0-.1-.1-.2-.1-.3-.1-.1-.1-.2-.2-.2-.2.1-.3 0-.4 0zM120.3 31.1h1.2v.3h-.9v.6h.8v.3h-.8v.7h.9v.3h-1.2v-2.2zM123.7 32.7h-.8l-.2.6h-.3l.8-2.3h.1l.8 2.3h-.3l-.1-.6zm-.7-.2h.6l-.2-.6-.1-.3-.1.4-.2.5zM124.4 31.1h.7c.1 0 .2.1.2.1.1 0 .1.1.2.2 0 .1.1.2.1.3v.2c0 .1-.1.1-.1.2s-.1.1-.2.1-.1.1-.2.1l.1.1.5.9h-.3l-.6-.9h-.3v1h-.3v-2.3zm.6.2s-.1 0 0 0h-.2-.1-.1v.8h.4c.1 0 .1 0 .1-.1l.1-.1v-.2c0-.1 0-.2-.1-.3.1 0 0-.1-.1-.1zM127.5 31.4h-.7v2h-.3v-2h-.7v-.3h1.6v.3zM127.8 31.1h1.2v.3h-.9v.6h.8v.3h-.8v.7h.9v.3h-1.2v-2.2zM130.4 32.7c0-.1 0-.2-.1-.2-.1-.1-.1-.1-.2-.1s-.2-.1-.2-.1c-.1 0-.2-.1-.2-.1l-.2-.2c-.1-.1-.1-.2-.1-.3 0-.2.1-.3.2-.4.1-.1.3-.2.5-.2h.3c.1 0 .2 0 .2.1l-.1.3s-.1 0-.2-.1h-.3c-.1 0-.2 0-.3.1-.1.1-.1.1-.1.2s0 .1.1.2.1.1.2.1.2.1.2.1c.1 0 .2.1.2.1l.2.2c.1.1.1.2.1.3 0 .1 0 .2-.1.3 0 .1-.1.2-.1.2-.1.1-.1.1-.2.1h-.7c-.1 0-.2-.1-.2-.1l.1-.3s.1.1.2.1h.5c.1 0 .1 0 .1-.1l.1-.1c.1 0 .1 0 .1-.1zM132.4 32.6l.1.4.1-.4.5-1.5h.3l-.8 2.3h-.1l-.8-2.3h.3l.4 1.5zM133.7 31.3h-.2v-.2h.7v.2h-.2v1.8h.2v.2h-.7v-.2h.2v-1.8zM135.6 32.7c0-.1 0-.2-.1-.2-.1-.1-.1-.1-.2-.1s-.2-.1-.2-.1c-.1 0-.2-.1-.2-.1l-.2-.2c-.1-.1-.1-.2-.1-.3 0-.2.1-.3.2-.4.1-.1.3-.2.5-.2h.3c.1 0 .2 0 .2.1l-.1.3s-.1 0-.2-.1h-.3c-.1 0-.2 0-.3.1-.1.1-.1.1-.1.2s0 .1.1.2.1.1.2.1.2.1.2.1c.1 0 .2.1.2.1l.2.2c.1.1.1.2.1.3 0 .1 0 .2-.1.3 0 .1-.1.2-.1.2-.1.1-.1.1-.2.1h-.7c-.1 0-.2-.1-.2-.1l.1-.3s.1.1.2.1h.5c.1 0 .1 0 .1-.1l.1-.1c.1 0 .1 0 .1-.1zM137.5 31.1h.3v1.5c0 .1 0 .3-.1.4 0 .1-.1.2-.1.3s-.1.1-.2.1h-.3c-.3 0-.4-.1-.6-.2-.1-.1-.2-.3-.2-.6v-1.5h.3v1.4c0 .2 0 .4.1.5.1.1.2.1.4.1s.3 0 .3-.1c.1-.1.1-.2.1-.5v-1.4zM139.3 32.7h-.8l-.2.6h-.3l.8-2.3h.1l.8 2.3h-.3l-.1-.6zm-.7-.2h.6l-.2-.6-.1-.3-.1.4-.2.5zM140.2 31.3h-.2v-.2h.7v.2h-.2v1.8h.2v.2h-.7v-.2h.2v-1.8zM142.1 32.7c0-.1 0-.2-.1-.2-.1-.1-.1-.1-.2-.1s-.2-.1-.2-.1c-.1 0-.2-.1-.2-.1l-.2-.2c-.1-.1-.1-.2-.1-.3 0-.2.1-.3.2-.4.1-.1.3-.2.5-.2h.3c.1 0 .2 0 .2.1l-.1.3s-.1 0-.2-.1h-.3c-.1 0-.2 0-.3.1-.1.1-.1.1-.1.2s0 .1.1.2.1.1.2.1.2.1.2.1c.1 0 .2.1.2.1l.2.2c.1.1.1.2.1.3 0 .1 0 .2-.1.3s-.1.2-.1.2c-.1.1-.1.1-.2.1h-.7c-.1 0-.2-.1-.2-.1l.1-.3s.1.1.2.1h.5c.1 0 .1 0 .1-.1l.1-.1c.1 0 .1 0 .1-.1zM143.6 31h.2v2.2h-.2V31zM146.1 31.1h.3v1.5c0 .1 0 .3-.1.4 0 .1-.1.2-.1.3s-.1.1-.2.1h-.3c-.3 0-.4-.1-.6-.2-.1-.1-.2-.3-.2-.6v-1.5h.3v1.4c0 .2 0 .4.1.5.1.1.2.1.4.1s.3 0 .3-.1c.1-.1.1-.2.1-.5v-1.4zM146.8 31.1h1.2v.3h-.9v.7h.8v.3h-.8v1h-.3v-2.3zM149.1 32.2h.7v1l-.1.1s-.1 0-.1.1h-.4c-.1 0-.3 0-.4-.1s-.2-.1-.3-.2c-.1-.1-.2-.2-.2-.4 0-.1-.1-.3-.1-.5s0-.4.1-.5c.1-.1.1-.3.2-.4.1-.1.2-.2.3-.2.1 0 .2-.1.3-.1h.3c.1 0 .1 0 .2.1l-.1.3c-.1 0-.2-.1-.4-.1h-.3c-.1 0-.2.1-.2.1-.1.1-.1.2-.2.3 0 .1-.1.3-.1.4 0 .2 0 .3.1.4 0 .1.1.2.1.3l.2.2c.1 0 .2.1.3.1h.2c.1 0 .1 0 .1-.1v-.6l-.5-.1v-.1z"/><g><path d="M130 27.6c-.4.5-.8 1.1-1.2 1.6-.1.2-.3.1-.4 0-.7-.4-1.3-.9-1.6-1.7 0-.1-.1-.1-.1-.2-.3.3-.7.6-1 .9-1.7 1.3-4 1.4-5.8.4-1.4-.9-2-2.2-2-3.8 0-2 1.2-3.6 3.2-4.4 1.6-.6 3.2-.7 4.9-.6h.2v-.3-1.4c0-1.2-.6-1.8-1.8-2-1.3-.2-2.5.2-3.7.9-.4.2-.7.5-1.1.7-.4-.6-.8-1.2-1.2-1.9.1-.1.2-.1.3-.2 2-1.2 4.1-1.9 6.4-1.8 1.2.1 2.3.4 3 1.4.6.7.8 1.6.8 2.5v6.9c0 1.2.2 2.2 1.1 3zm-3.8-4.1c.1 0 .1 0 0 0 0-.5 0-1 .1-1.5 0-.2-.1-.3-.3-.3-.9 0-1.8 0-2.7.2-1.6.3-2.6 1.6-2.5 3.3.1 1.4 1.2 2.2 2.5 2.1 1.1-.1 2-.7 2.7-1.6.1-.1.2-.4.2-.6.1-.6 0-1.1 0-1.6zM130.1 14.3h2.8c.1 0 .2.2.3.3.6 1.7 1.1 3.4 1.7 5.1.5 1.5 1 3 1.5 4.6.1-.2.2-.4.2-.5 1-3 2-6.1 3-9.2.1-.3.2-.3.5-.3h2.5c0 .1-.1.2-.1.3-1.6 4.6-3.2 9.3-4.8 13.9-.1.2-.2.3-.5.3h-1.9c-.2 0-.3-.1-.4-.3-1.3-4.1-2.6-8.2-4-12.2-.2-.6-.4-1.1-.6-1.7-.2 0-.2-.1-.2-.3zM111.6 20.1h4.1v2.3h-4.1v6.4h-2.7v-.3-13.9c0-.3.1-.4.4-.4h7.8c-.1.8-.3 1.5-.4 2.2 0 .1-.2.1-.3.1h-4.7c-.1 1.3-.1 2.4-.1 3.6z"/></g></g><g fill="#fff"><path d="M261.4 27c0-1.8 1.4-3.4 3.4-3.4 1.1 0 1.8.3 2.5.9l-.7.9c-.5-.4-1-.7-1.8-.7-1.2 0-2.1 1-2.1 2.3 0 1.3.9 2.3 2.2 2.3.6 0 1.2-.2 1.6-.5v-1.2h-1.7v-1h2.8v2.7c-.6.5-1.6 1-2.7 1-2.2 0-3.5-1.4-3.5-3.3zM268.6 27c0-1.8 1.4-3.4 3.4-3.4s3.4 1.5 3.4 3.3c0 1.8-1.4 3.4-3.4 3.4s-3.4-1.5-3.4-3.3zm5.7 0c0-1.3-.9-2.3-2.2-2.3-1.3 0-2.2 1-2.2 2.3 0 1.3.9 2.3 2.2 2.3 1.3 0 2.2-1 2.2-2.3zM275.9 23.7h1.3l2 5 2-5h1.2l-2.7 6.6h-1l-2.8-6.6zM283.4 23.7h4.8v1h-3.7v1.7h3.3v1h-3.3v1.7h3.7v1h-4.9v-6.4zM289.6 23.7h2.9c.8 0 1.5.2 1.9.7.3.4.5.8.5 1.4 0 1.1-.6 1.7-1.6 2l1.8 2.5h-1.3l-1.6-2.3h-1.4v2.3h-1.1v-6.6zm2.9 3.3c.8 0 1.3-.4 1.3-1.1 0-.7-.5-1.1-1.3-1.1h-1.7V27h1.7zM296.4 23.7h1.1l3.5 4.5v-4.5h1.1v6.5h-1l-3.6-4.6v4.6h-1.1v-6.5zM303.4 27c0-1.8 1.4-3.4 3.4-3.4s3.4 1.5 3.4 3.3c0 1.8-1.4 3.4-3.4 3.4s-3.4-1.5-3.4-3.3zm5.6 0c0-1.3-.9-2.3-2.2-2.3-1.3 0-2.2 1-2.2 2.3 0 1.3.9 2.3 2.2 2.3 1.3 0 2.2-1 2.2-2.3zM314.4 23.7h4.8v1h-3.7v1.8h3.3v1h-3.3v2.6h-1.1v-6.4zM320.5 23.7h4.8v1h-3.7v1.7h3.3v1h-3.3v1.7h3.7v1h-4.9v-6.4zM326.7 23.7h2.4c2 0 3.5 1.4 3.5 3.2 0 1.8-1.4 3.3-3.5 3.3h-2.4v-6.5zm2.5 5.5c1.4 0 2.3-.9 2.3-2.2 0-1.3-.9-2.2-2.3-2.2h-1.3v4.4h1.3zM334 23.7h4.8v1h-3.7v1.7h3.3v1h-3.3v1.7h3.7v1H334v-6.4zM340.2 23.7h2.9c.8 0 1.5.2 1.9.7.3.4.5.8.5 1.4 0 1.1-.6 1.7-1.6 2l1.8 2.5h-1.3l-1.6-2.3h-1.4v2.3h-1.1v-6.6zm2.9 3.3c.8 0 1.3-.4 1.3-1.1 0-.7-.5-1.1-1.3-1.1h-1.7V27h1.7zM349.3 23.7h1.1l2.9 6.6H352l-.7-1.6h-3.1l-.7 1.6h-1.2l3-6.6zm1.6 4l-1.1-2.6-1.1 2.6h2.2zM354.3 23.7h1.1v5.5h3.4v1h-4.6v-6.5z"/></g></svg>